MerriweatherSans-ExtraBoldItalic.ufo
<glyph name="dollar" format="1">
  <advance width="1204"/>
  <unicode hex="0024"/>
  <outline>
    <contour>
      <point x="595" y="1415" type="line"/>
      <point x="835" y="1415" type="line"/>
      <point x="899" y="1793" type="line"/>
      <point x="659" y="1793" type="line"/>
    </contour>
    <contour>
      <point x="415" y="103" type="line"/>
      <point x="346" y="-275" type="line"/>
      <point x="586" y="-275" type="line"/>
      <point x="655" y="103" type="line"/>
    </contour>
    <contour>
      <point x="72" y="78" type="line"/>
      <point x="119" y="41"/>
      <point x="330" y="-16"/>
      <point x="487" y="-16" type="curve" smooth="yes"/>
      <point x="834" y="-16"/>
      <point x="1047" y="142"/>
      <point x="1042" y="452" type="curve" smooth="yes"/>
      <point x="1039" y="655"/>
      <point x="874" y="791"/>
      <point x="754" y="882" type="curve"/>
      <point x="613" y="995"/>
      <point x="553" y="1047"/>
      <point x="553" y="1142" type="curve" smooth="yes"/>
      <point x="553" y="1213"/>
      <point x="618" y="1267"/>
      <point x="740" y="1267" type="curve" smooth="yes"/>
      <point x="838" y="1267"/>
      <point x="966" y="1226"/>
      <point x="1012" y="1180" type="curve"/>
      <point x="1120" y="1461" type="line"/>
      <point x="1067" y="1498"/>
      <point x="952" y="1546"/>
      <point x="777" y="1546" type="curve" smooth="yes"/>
      <point x="455" y="1546"/>
      <point x="218" y="1368"/>
      <point x="224" y="1091" type="curve" smooth="yes"/>
      <point x="228" y="895"/>
      <point x="369" y="753"/>
      <point x="493" y="660" type="curve"/>
      <point x="638" y="554"/>
      <point x="685" y="489"/>
      <point x="685" y="401" type="curve" smooth="yes"/>
      <point x="685" y="313"/>
      <point x="621" y="261"/>
      <point x="470" y="261" type="curve" smooth="yes"/>
      <point x="369" y="261"/>
      <point x="251" y="311"/>
      <point x="187" y="360" type="curve"/>
    </contour>
  </outline>
</glyph>
<glyph name="percent" format="1">
  <advance width="2003"/>
  <unicode hex="0025"/>
  <outline>
    <contour>
      <point x="536" y="0" type="line"/>
      <point x="805" y="0" type="line"/>
      <point x="1512" y="1530" type="line"/>
      <point x="1263" y="1530" type="line"/>
    </contour>
    <contour>
      <point x="427" y="673" type="curve" smooth="yes"/>
      <point x="723" y="673"/>
      <point x="910" y="931"/>
      <point x="910" y="1188" type="curve" smooth="yes"/>
      <point x="910" y="1397"/>
      <point x="817" y="1532"/>
      <point x="586" y="1532" type="curve" smooth="yes"/>
      <point x="306" y="1532"/>
      <point x="102" y="1284"/>
      <point x="102" y="1035" type="curve" smooth="yes"/>
      <point x="102" y="811"/>
      <point x="213" y="673"/>
    </contour>
    <contour>
      <point x="470" y="880" type="curve" smooth="yes"/>
      <point x="386" y="880"/>
      <point x="337" y="951"/>
      <point x="337" y="1052" type="curve" smooth="yes"/>
      <point x="337" y="1159"/>
      <point x="404" y="1327"/>
      <point x="542" y="1327" type="curve" smooth="yes"/>
      <point x="620" y="1327"/>
      <point x="665" y="1262"/>
      <point x="665" y="1161" type="curve" smooth="yes"/>
      <point x="665" y="1057"/>
      <point x="606" y="880"/>
    </contour>
    <contour>
      <point x="1173" y="421" type="curve" smooth="yes"/>
      <point x="1173" y="197"/>
      <point x="1284" y="59"/>
      <point x="1498" y="59" type="curve" smooth="yes"/>
      <point x="1794" y="59"/>
      <point x="1981" y="317"/>
      <point x="1981" y="574" type="curve" smooth="yes"/>
      <point x="1981" y="783"/>
      <point x="1888" y="918"/>
      <point x="1657" y="918" type="curve" smooth="yes"/>
      <point x="1377" y="918"/>
      <point x="1173" y="670"/>
    </contour>
    <contour>
      <point x="1408" y="438" type="curve" smooth="yes"/>
      <point x="1408" y="545"/>
      <point x="1475" y="713"/>
      <point x="1613" y="713" type="curve" smooth="yes"/>
      <point x="1691" y="713"/>
      <point x="1736" y="648"/>
      <point x="1736" y="547" type="curve" smooth="yes"/>
      <point x="1736" y="443"/>
      <point x="1677" y="266"/>
      <point x="1541" y="266" type="curve" smooth="yes"/>
      <point x="1457" y="266"/>
      <point x="1408" y="337"/>
    </contour>
  </outline>
</glyph>
<glyph name="quotesingle" format="1">
  <advance width="564"/>
  <unicode hex="0027"/>
  <outline>
    <contour>
      <point x="216" y="966" type="line"/>
      <point x="444" y="966" type="line"/>
      <point x="628" y="1687" type="line"/>
      <point x="301" y="1687" type="line"/>
    </contour>
  </outline>
</glyph>
<glyph name="parenleft" format="1">
  <advance width="854"/>
  <unicode hex="0028"/>
  <outline>
    <contour>
      <point x="130" y="540" type="curve" smooth="yes"/>
      <point x="130" y="25"/>
      <point x="374" y="-259"/>
      <point x="487" y="-351" type="curve"/>
      <point x="504" y="-351" type="line"/>
      <point x="680" y="-245" type="line"/>
      <point x="583" y="-108"/>
      <point x="449" y="128"/>
      <point x="449" y="517" type="curve" smooth="yes"/>
      <point x="449" y="639"/>
      <point x="458" y="750"/>
      <point x="476" y="851" type="curve" smooth="yes"/>
      <point x="542" y="1217"/>
      <point x="718" y="1462"/>
      <point x="924" y="1672" type="curve"/>
      <point x="745" y="1791" type="line"/>
      <point x="583" y="1703"/>
      <point x="248" y="1407"/>
      <point x="155" y="850" type="curve" smooth="yes"/>
      <point x="139" y="755"/>
      <point x="130" y="651"/>
    </contour>
  </outline>
</glyph>
<glyph name="plus" format="1">
  <advance width="1352"/>
  <unicode hex="002B"/>
  <outline>
    <contour>
      <point x="497" y="250" type="line"/>
      <point x="770" y="250" type="line"/>
      <point x="804" y="526" type="line"/>
      <point x="810" y="661" type="line"/>
      <point x="907" y="654" type="line"/>
      <point x="1181" y="654" type="line"/>
      <point x="1216" y="917" type="line"/>
      <point x="941" y="917" type="line"/>
      <point x="843" y="907" type="line"/>
      <point x="868" y="1045" type="line"/>
      <point x="894" y="1324" type="line"/>
      <point x="622" y="1324" type="line"/>
      <point x="592" y="1045" type="line"/>
      <point x="583" y="906" type="line"/>
      <point x="466" y="917" type="line"/>
      <point x="217" y="917" type="line"/>
      <point x="182" y="654" type="line"/>
      <point x="431" y="654" type="line"/>
      <point x="555" y="661" type="line"/>
      <point x="530" y="526" type="line"/>
    </contour>
  </outline>
</glyph>
<glyph name="period" format="1">
  <advance width="526"/>
  <unicode hex="002E"/>
  <outline>
    <contour>
      <point x="30" y="123" type="curve" smooth="yes"/>
      <point x="30" y="34"/>
      <point x="89" y="-29"/>
      <point x="186" y="-29" type="curve" smooth="yes"/>
      <point x="315" y="-29"/>
      <point x="399" y="58"/>
      <point x="399" y="189" type="curve" smooth="yes"/>
      <point x="399" y="269"/>
      <point x="356" y="338"/>
      <point x="238" y="338" type="curve" smooth="yes"/>
      <point x="109" y="338"/>
      <point x="30" y="235"/>
    </contour>
  </outline>
</glyph>
<glyph name="slash" format="1">
  <advance width="854"/>
  <unicode hex="002F"/>
  <outline>
    <contour>
      <point x="130" y="-362" type="line"/>
      <point x="993" y="1597" type="line"/>
      <point x="719" y="1597" type="line"/>
      <point x="-142" y="-362" type="line"/>
    </contour>
  </outline>
</glyph>
<glyph name="one" format="1">
  <advance width="1036"/>
  <unicode hex="0031"/>
  <outline>
    <contour>
      <point x="311" y="0" type="line"/>
      <point x="668" y="0" type="line"/>
      <point x="838" y="1152" type="line"/>
      <point x="598" y="1162" type="line"/>
      <point x="492" y="1089"/>
      <point x="322" y="991"/>
      <point x="182" y="960" type="curve"/>
      <point x="222" y="762" type="line"/>
      <point x="309" y="777"/>
      <point x="354" y="776"/>
      <point x="431" y="801" type="curve"/>
    </contour>
  </outline>
</glyph>
<glyph name="five" format="1">
  <advance width="1176"/>
  <unicode hex="0035"/>
  <outline>
    <contour>
      <point x="71" y="-117" type="curve"/>
      <point x="34" y="-349" type="line"/>
      <point x="74" y="-363"/>
      <point x="131" y="-366"/>
      <point x="164" y="-366" type="curve" smooth="yes"/>
      <point x="675" y="-366"/>
      <point x="1052" y="-148"/>
      <point x="1052" y="241" type="curve" smooth="yes"/>
      <point x="1052" y="508"/>
      <point x="880" y="605"/>
      <point x="670" y="605" type="curve" smooth="yes"/>
      <point x="577" y="605"/>
      <point x="490" y="587"/>
      <point x="452" y="570" type="curve"/>
      <point x="530" y="865" type="line"/>
      <point x="998" y="865" type="line"/>
      <point x="1080" y="1156" type="line"/>
      <point x="872" y="1156" type="line"/>
      <point x="850" y="1140" type="line"/>
      <point x="263" y="1140" type="line"/>
      <point x="109" y="459" type="line"/>
      <point x="235" y="324" type="line"/>
      <point x="284" y="352"/>
      <point x="389" y="377"/>
      <point x="461" y="377" type="curve" smooth="yes"/>
      <point x="623" y="377"/>
      <point x="661" y="300"/>
      <point x="661" y="201" type="curve" smooth="yes"/>
      <point x="661" y="-48"/>
      <point x="345" y="-123"/>
      <point x="150" y="-123" type="curve" smooth="yes"/>
      <point x="127" y="-123"/>
      <point x="102" y="-122"/>
    </contour>
  </outline>
</glyph>
<glyph name="nine" format="1">
  <advance width="1293"/>
  <unicode hex="0039"/>
  <outline>
    <contour>
      <point x="202" y="-274" type="curve"/>
      <point x="281" y="-485" type="line"/>
      <point x="814" y="-355"/>
      <point x="1186" y="133"/>
      <point x="1186" y="627" type="curve"/>
      <point x="1186" y="924"/>
      <point x="1043" y="1156"/>
      <point x="696" y="1156" type="curve" smooth="yes"/>
      <point x="262" y="1156"/>
      <point x="101" y="825"/>
      <point x="101" y="533" type="curve" smooth="yes"/>
      <point x="101" y="308"/>
      <point x="245" y="103"/>
      <point x="493" y="103" type="curve" smooth="yes"/>
      <point x="571" y="103"/>
      <point x="674" y="122"/>
      <point x="744" y="160" type="curve"/>
      <point x="720" y="86"/>
      <point x="510" y="-172"/>
    </contour>
    <contour>
      <point x="436" y="566" type="curve" smooth="yes"/>
      <point x="436" y="702"/>
      <point x="492" y="918"/>
      <point x="667" y="918" type="curve" smooth="yes"/>
      <point x="769" y="918"/>
      <point x="858" y="812"/>
      <point x="858" y="613" type="curve"/>
      <point x="858" y="556"/>
      <point x="843" y="482"/>
      <point x="823" y="420" type="curve"/>
      <point x="796" y="389"/>
      <point x="709" y="349"/>
      <point x="614" y="349" type="curve" smooth="yes"/>
      <point x="519" y="349"/>
      <point x="436" y="412"/>
    </contour>
  </outline>
</glyph>
<glyph name="equal" format="1">
  <advance width="1085"/>
  <unicode hex="003D"/>
  <outline>
    <contour>
      <point x="106" y="315" type="line"/>
      <point x="946" y="315" type="line"/>
      <point x="983" y="563" type="line"/>
      <point x="143" y="563" type="line"/>
    </contour>
    <contour>
      <point x="161" y="808" type="line"/>
      <point x="1001" y="808" type="line"/>
      <point x="1038" y="1056" type="line"/>
      <point x="198" y="1056" type="line"/>
    </contour>
  </outline>
</glyph>
<glyph name="B" format="1">
  <advance width="1352"/>
  <unicode hex="0042"/>
  <outline>
    <contour>
      <point x="227" y="0" type="line"/>
      <point x="301" y="0"/>
      <point x="452" y="-16"/>
      <point x="532" y="-16" type="curve" smooth="yes"/>
      <point x="983" y="-16"/>
      <point x="1272" y="127"/>
      <point x="1272" y="490" type="curve" smooth="yes"/>
      <point x="1272" y="651"/>
      <point x="1172" y="767"/>
      <point x="992" y="804" type="curve"/>
      <point x="1196" y="846"/>
      <point x="1294" y="1001"/>
      <point x="1294" y="1198" type="curve" smooth="yes"/>
      <point x="1294" y="1389"/>
      <point x="1179" y="1545"/>
      <point x="786" y="1545" type="curve" smooth="yes"/>
      <point x="675" y="1545"/>
      <point x="556" y="1530"/>
      <point x="455" y="1530" type="curve"/>
      <point x="545" y="1287" type="line"/>
      <point x="594" y="1297"/>
      <point x="637" y="1300"/>
      <point x="723" y="1300" type="curve" smooth="yes"/>
      <point x="845" y="1300"/>
      <point x="929" y="1275"/>
      <point x="929" y="1158" type="curve" smooth="yes"/>
      <point x="929" y="979"/>
      <point x="830" y="904"/>
      <point x="646" y="904" type="curve" smooth="yes"/>
      <point x="602" y="904"/>
      <point x="554" y="907"/>
      <point x="512" y="911" type="curve"/>
      <point x="425" y="776" type="line"/>
      <point x="481" y="662" type="line"/>
      <point x="513" y="664"/>
      <point x="538" y="669"/>
      <point x="628" y="669" type="curve" smooth="yes"/>
      <point x="815" y="669"/>
      <point x="896" y="625"/>
      <point x="896" y="474" type="curve" smooth="yes"/>
      <point x="896" y="275"/>
      <point x="768" y="233"/>
      <point x="582" y="233" type="curve" smooth="yes"/>
      <point x="532" y="233"/>
      <point x="438" y="236"/>
      <point x="409" y="254" type="curve"/>
    </contour>
    <contour>
      <point x="72" y="0" type="line"/>
      <point x="426" y="0" type="line"/>
      <point x="645" y="1530" type="line"/>
      <point x="291" y="1530" type="line"/>
    </contour>
    <contour>
      <point x="810" y="-168" type="move" name="btm"/>
    </contour>
    <contour>
      <point x="810" y="1700" type="move" name="top"/>
    </contour>
  </outline>
</glyph>
<glyph name="E" format="1">
  <advance width="1204"/>
  <unicode hex="0045"/>
  <outline>
    <contour>
      <point x="72" y="0" type="line"/>
      <point x="1061" y="0" type="line"/>
      <point x="1098" y="280" type="line"/>
      <point x="465" y="270" type="line"/>
      <point x="520" y="658" type="line"/>
      <point x="941" y="649" type="line"/>
      <point x="977" y="925" type="line"/>
      <point x="558" y="920" type="line"/>
      <point x="606" y="1257" type="line"/>
      <point x="1168" y="1255" type="line"/>
      <point x="1205" y="1530" type="line"/>
      <point x="291" y="1530" type="line"/>
    </contour>
    <contour>
      <point x="782" y="-168" type="move" name="btm"/>
    </contour>
    <contour>
      <point x="750" y="1700" type="move" name="top"/>
    </contour>
  </outline>
</glyph>
<glyph name="L" format="1">
  <advance width="1068"/>
  <unicode hex="004C"/>
  <outline>
    <contour>
      <point x="72" y="0" type="line"/>
      <point x="920" y="0" type="line"/>
      <point x="962" y="288" type="line"/>
      <point x="465" y="277" type="line"/>
      <point x="645" y="1530" type="line"/>
      <point x="291" y="1530" type="line"/>
    </contour>
    <contour>
      <point x="423" y="-168" type="move" name="btm"/>
    </contour>
    <contour>
      <point x="498" y="1702" type="move" name="top"/>
    </contour>
  </outline>
</glyph>
<glyph name="M" format="1">
  <advance width="1988"/>
  <unicode hex="004D"/>
  <outline>
    <contour>
      <point x="-31" y="0" type="line"/>
      <point x="318" y="0" type="line"/>
      <point x="566" y="1139" type="line"/>
      <point x="614" y="1373" type="line"/>
      <point x="616" y="1139" type="line"/>
      <point x="736" y="-18" type="line"/>
      <point x="1125" y="-3" type="line"/>
      <point x="1562" y="1139" type="line"/>
      <point x="1636" y="1373" type="line"/>
      <point x="1609" y="1139" type="line"/>
      <point x="1520" y="0" type="line"/>
      <point x="1873" y="0" type="line"/>
      <point x="1897" y="1530" type="line"/>
      <point x="1380" y="1530" type="line"/>
      <point x="1025" y="477" type="line"/>
      <point x="977" y="252" type="line"/>
      <point x="971" y="477" type="line"/>
      <point x="903" y="1530" type="line"/>
      <point x="388" y="1530" type="line"/>
    </contour>
    <contour>
      <point x="1217" y="-168" type="move" name="btm"/>
    </contour>
    <contour>
      <point x="1111" y="1700" type="move" name="top"/>
    </contour>
  </outline>
</glyph>
<glyph name="S" format="1">
  <advance width="1058"/>
  <unicode hex="0053"/>
  <outline>
    <contour>
      <point x="-5" y="80" type="line"/>
      <point x="41" y="43"/>
      <point x="234" y="-16"/>
      <point x="391" y="-16" type="curve" smooth="yes"/>
      <point x="738" y="-16"/>
      <point x="974" y="146"/>
      <point x="974" y="458" type="curve" smooth="yes"/>
      <point x="974" y="651"/>
      <point x="815" y="785"/>
      <point x="697" y="879" type="curve" smooth="yes"/>
      <point x="587" y="966"/>
      <point x="504" y="1035"/>
      <point x="506" y="1130" type="curve" smooth="yes"/>
      <point x="507" y="1201"/>
      <point x="563" y="1267"/>
      <point x="692" y="1267" type="curve" smooth="yes"/>
      <point x="793" y="1267"/>
      <point x="905" y="1226"/>
      <point x="951" y="1180" type="curve"/>
      <point x="1063" y="1461" type="line"/>
      <point x="1011" y="1498"/>
      <point x="877" y="1546"/>
      <point x="702" y="1546" type="curve" smooth="yes"/>
      <point x="380" y="1546"/>
      <point x="168" y="1368"/>
      <point x="168" y="1089" type="curve" smooth="yes"/>
      <point x="168" y="903"/>
      <point x="302" y="760"/>
      <point x="424" y="668" type="curve" smooth="yes"/>
      <point x="568" y="559"/>
      <point x="614" y="508"/>
      <point x="612" y="420" type="curve" smooth="yes"/>
      <point x="610" y="335"/>
      <point x="559" y="267"/>
      <point x="408" y="267" type="curve" smooth="yes"/>
      <point x="307" y="267"/>
      <point x="178" y="319"/>
      <point x="115" y="368" type="curve"/>
    </contour>
    <contour>
      <point x="469" y="-170" type="move" name="btm"/>
    </contour>
    <contour>
      <point x="658" y="1700" type="move" name="top"/>
    </contour>
  </outline>
</glyph>
<glyph name="T" format="1">
  <advance width="1153"/>
  <unicode hex="0054"/>
  <outline>
    <contour>
      <point x="314" y="0" type="line"/>
      <point x="674" y="0" type="line"/>
      <point x="855" y="1266" type="line"/>
      <point x="1207" y="1255" type="line"/>
      <point x="1247" y="1530" type="line"/>
      <point x="180" y="1530" type="line"/>
      <point x="136" y="1255" type="line"/>
      <point x="495" y="1266" type="line"/>
    </contour>
    <contour>
      <point x="454" y="-170" type="move" name="btm"/>
    </contour>
    <contour>
      <point x="702" y="1700" type="move" name="top"/>
    </contour>
  </outline>
</glyph>
<glyph name="U" format="1">
  <advance width="1440"/>
  <unicode hex="0055"/>
  <outline>
    <contour>
      <point x="115" y="432" type="curve" smooth="yes"/>
      <point x="116" y="156"/>
      <point x="272" y="-16"/>
      <point x="621" y="-16" type="curve" smooth="yes"/>
      <point x="1046" y="-16"/>
      <point x="1247" y="154"/>
      <point x="1309" y="597" type="curve" smooth="yes"/>
      <point x="1439" y="1530" type="line"/>
      <point x="1087" y="1530" type="line"/>
      <point x="960" y="634" type="line" smooth="yes"/>
      <point x="916" y="339"/>
      <point x="838" y="255"/>
      <point x="675" y="255" type="curve" smooth="yes"/>
      <point x="531" y="255"/>
      <point x="478" y="300"/>
      <point x="477" y="450" type="curve" smooth="yes"/>
      <point x="477" y="507"/>
      <point x="478" y="569"/>
      <point x="488" y="642" type="curve" smooth="yes"/>
      <point x="614" y="1530" type="line"/>
      <point x="261" y="1530" type="line"/>
      <point x="128" y="597" type="line" smooth="yes"/>
      <point x="119" y="538"/>
      <point x="114" y="484"/>
    </contour>
    <contour>
      <point x="705" y="-170" type="move" name="btm"/>
    </contour>
    <contour>
      <point x="838" y="1700" type="move" name="top"/>
    </contour>
  </outline>
</glyph>
<glyph name="Z" format="1">
  <advance width="1158"/>
  <unicode hex="005A"/>
  <outline>
    <contour>
      <point x="-41" y="0" type="line"/>
      <point x="1002" y="0" type="line"/>
      <point x="1049" y="292" type="line"/>
      <point x="431" y="282" type="line"/>
      <point x="515" y="356" type="line"/>
      <point x="1257" y="1444" type="line"/>
      <point x="1234" y="1530" type="line"/>
      <point x="258" y="1530" type="line"/>
      <point x="212" y="1245" type="line"/>
      <point x="799" y="1255" type="line"/>
      <point x="706" y="1188" type="line"/>
      <point x="-68" y="89" type="line"/>
    </contour>
    <contour>
      <point x="562" y="-170" type="move" name="btm"/>
    </contour>
    <contour>
      <point x="742" y="1700" type="move" name="top"/>
    </contour>
  </outline>
</glyph>
<glyph name="bracketleft" format="1">
  <advance width="854"/>
  <unicode hex="005B"/>
  <outline>
    <contour>
      <point x="138" y="33" type="line"/>
      <point x="132" y="-7"/>
      <point x="130" y="-43"/>
      <point x="130" y="-77" type="curve" smooth="yes"/>
      <point x="130" y="-187"/>
      <point x="201" y="-259"/>
      <point x="327" y="-259" type="curve" smooth="yes"/>
      <point x="486" y="-259"/>
      <point x="579" y="-229"/>
      <point x="670" y="-203" type="curve"/>
      <point x="692" y="-30" type="line"/>
      <point x="437" y="-30" type="line"/>
      <point x="651" y="1580" type="line"/>
      <point x="906" y="1580" type="line"/>
      <point x="932" y="1755" type="line"/>
      <point x="932" y="1755"/>
      <point x="740" y="1802"/>
      <point x="602" y="1802" type="curve" smooth="yes"/>
      <point x="444" y="1802"/>
      <point x="373" y="1705"/>
      <point x="346" y="1513" type="curve" smooth="yes"/>
    </contour>
  </outline>
</glyph>
<glyph name="backslash" format="1">
  <advance width="854"/>
  <unicode hex="005C"/>
  <outline>
    <contour>
      <point x="582" y="-362" type="line"/>
      <point x="6" y="1597" type="line"/>
      <point x="274" y="1597" type="line"/>
      <point x="851" y="-362" type="line"/>
    </contour>
  </outline>
</glyph>
<glyph name="a" format="1">
  <advance width="1268"/>
  <unicode hex="0061"/>
  <outline>
    <contour>
      <point x="724" y="0" type="line"/>
      <point x="1044" y="0" type="line"/>
      <point x="1205" y="1156" type="line"/>
      <point x="841" y="1067" type="line"/>
      <point x="728" y="266" type="line"/>
      <point x="736" y="259" type="line"/>
    </contour>
    <contour>
      <point x="406" y="-16" type="curve" smooth="yes"/>
      <point x="641" y="-16"/>
      <point x="758" y="267"/>
      <point x="779" y="379" type="curve"/>
      <point x="786" y="644" type="line"/>
      <point x="754" y="510"/>
      <point x="642" y="224"/>
      <point x="531" y="224" type="curve" smooth="yes"/>
      <point x="471" y="224"/>
      <point x="442" y="297"/>
      <point x="442" y="433" type="curve" smooth="yes"/>
      <point x="442" y="674"/>
      <point x="542" y="946"/>
      <point x="748" y="946" type="curve" smooth="yes"/>
      <point x="835" y="946"/>
      <point x="908" y="935"/>
      <point x="954" y="860" type="curve"/>
      <point x="1029" y="1108" type="line"/>
      <point x="970" y="1130"/>
      <point x="861" y="1156"/>
      <point x="773" y="1156" type="curve" smooth="yes"/>
      <point x="305" y="1156"/>
      <point x="70" y="781"/>
      <point x="70" y="412" type="curve" smooth="yes"/>
      <point x="70" y="182"/>
      <point x="154" y="-16"/>
    </contour>
    <contour>
      <point x="1204" y="1660" type="move" name="caron"/>
    </contour>
    <contour>
      <point x="797" y="1255" type="move" name="top"/>
    </contour>
  </outline>
</glyph>
<glyph name="b" format="1">
  <advance width="1290"/>
  <unicode hex="0062"/>
  <outline>
    <contour>
      <point x="76" y="0" type="line"/>
      <point x="443" y="68" type="line"/>
      <point x="523" y="692" type="line"/>
      <point x="522" y="763" type="line"/>
      <point x="559" y="976" type="line"/>
      <point x="644" y="1634" type="line"/>
      <point x="301" y="1634" type="line"/>
    </contour>
    <contour>
      <point x="517" y="-16" type="curve" smooth="yes"/>
      <point x="985" y="-16"/>
      <point x="1220" y="355"/>
      <point x="1220" y="724" type="curve"/>
      <point x="1220" y="954"/>
      <point x="1136" y="1156"/>
      <point x="884" y="1156" type="curve" smooth="yes"/>
      <point x="648" y="1156"/>
      <point x="532" y="876"/>
      <point x="511" y="764" type="curve"/>
      <point x="504" y="499" type="line"/>
      <point x="535" y="633"/>
      <point x="646" y="912"/>
      <point x="758" y="912" type="curve" smooth="yes"/>
      <point x="818" y="912"/>
      <point x="846" y="839"/>
      <point x="846" y="703" type="curve" smooth="yes"/>
      <point x="846" y="462"/>
      <point x="747" y="194"/>
      <point x="541" y="194" type="curve" smooth="yes"/>
      <point x="454" y="194"/>
      <point x="382" y="205"/>
      <point x="335" y="280" type="curve"/>
      <point x="261" y="32" type="line"/>
      <point x="320" y="10"/>
      <point x="429" y="-16"/>
    </contour>
    <contour>
      <point x="917" y="1255" type="move" name="top"/>
    </contour>
  </outline>
</glyph>
<glyph name="e" format="1">
  <advance width="1112"/>
  <unicode hex="0065"/>
  <outline>
    <contour>
      <point x="73" y="442" type="curve" smooth="yes"/>
      <point x="73" y="205"/>
      <point x="197" y="-16"/>
      <point x="506" y="-16" type="curve" smooth="yes"/>
      <point x="766" y="-16"/>
      <point x="950" y="133"/>
      <point x="1009" y="218" type="curve"/>
      <point x="917" y="389" type="line"/>
      <point x="868" y="324"/>
      <point x="721" y="226"/>
      <point x="594" y="226" type="curve" smooth="yes"/>
      <point x="476" y="226"/>
      <point x="449" y="287"/>
      <point x="449" y="383" type="curve"/>
      <point x="782" y="467"/>
      <point x="1056" y="594"/>
      <point x="1056" y="893" type="curve" smooth="yes"/>
      <point x="1056" y="1054"/>
      <point x="952" y="1156"/>
      <point x="716" y="1156" type="curve" smooth="yes"/>
      <point x="357" y="1156"/>
      <point x="73" y="857"/>
    </contour>
    <contour>
      <point x="444" y="561" type="curve"/>
      <point x="447" y="701"/>
      <point x="510" y="960"/>
      <point x="637" y="960" type="curve" smooth="yes"/>
      <point x="690" y="960"/>
      <point x="712" y="929"/>
      <point x="712" y="859" type="curve" smooth="yes"/>
      <point x="712" y="698"/>
      <point x="562" y="568"/>
    </contour>
    <contour>
      <point x="885" y="63" type="move" name="btm"/>
    </contour>
    <contour>
      <point x="717" y="1255" type="move" name="top"/>
    </contour>
  </outline>
</glyph>
<glyph name="h" format="1">
  <advance width="1314"/>
  <unicode hex="0068"/>
  <outline>
    <contour>
      <point x="78" y="0" type="line"/>
      <point x="425" y="0" type="line"/>
      <point x="527" y="753" type="line"/>
      <point x="532" y="867" type="line"/>
      <point x="571" y="1072" type="line"/>
      <point x="646" y="1634" type="line"/>
      <point x="298" y="1634" type="line"/>
    </contour>
    <contour>
      <point x="505" y="668" type="line"/>
      <point x="562" y="799"/>
      <point x="665" y="887"/>
      <point x="744" y="887" type="curve" smooth="yes"/>
      <point x="798" y="887"/>
      <point x="829" y="862"/>
      <point x="825" y="788" type="curve" smooth="yes"/>
      <point x="822" y="723"/>
      <point x="811" y="626"/>
      <point x="797" y="510" type="curve" smooth="yes"/>
      <point x="776" y="336"/>
      <point x="747" y="135"/>
      <point x="727" y="0" type="curve"/>
      <point x="1084" y="0" type="line"/>
      <point x="1100" y="121"/>
      <point x="1131" y="328"/>
      <point x="1156" y="511" type="curve" smooth="yes"/>
      <point x="1178" y="672"/>
      <point x="1196" y="807"/>
      <point x="1196" y="854" type="curve" smooth="yes"/>
      <point x="1196" y="1078"/>
      <point x="1091" y="1156"/>
      <point x="919" y="1156" type="curve" smooth="yes"/>
      <point x="726" y="1156"/>
      <point x="573" y="1018"/>
      <point x="490" y="819" type="curve"/>
    </contour>
    <contour>
      <point x="856" y="1496" type="move" name="top"/>
    </contour>
    <contour>
      <point x="248" y="1857" type="move" name="cap"/>
    </contour>
  </outline>
</glyph>
<glyph name="k" format="1">
  <advance width="1226"/>
  <unicode hex="006B"/>
  <outline>
    <contour>
      <point x="543" y="630" type="line"/>
      <point x="791" y="0" type="line"/>
      <point x="1199" y="0" type="line"/>
      <point x="838" y="694" type="line"/>
    </contour>
    <contour>
      <point x="811" y="595" type="line"/>
      <point x="911" y="623"/>
      <point x="1096" y="761"/>
      <point x="1181" y="969" type="curve" smooth="yes"/>
      <point x="1203" y="1023"/>
      <point x="1218" y="1080"/>
      <point x="1221" y="1140" type="curve"/>
      <point x="868" y="1140" type="line"/>
      <point x="853" y="1080"/>
      <point x="833" y="1023"/>
      <point x="809" y="968" type="curve" smooth="yes"/>
      <point x="740" y="816"/>
      <point x="677" y="705"/>
      <point x="543" y="631" type="curve"/>
    </contour>
    <contour>
      <point x="78" y="0" type="line"/>
      <point x="426" y="0" type="line"/>
      <point x="647" y="1634" type="line"/>
      <point x="298" y="1634" type="line"/>
    </contour>
    <contour>
      <point x="598" y="-170" type="move" name="btm"/>
    </contour>
    <contour>
      <point x="675" y="1255" type="move" name="top"/>
    </contour>
  </outline>
</glyph>
<glyph name="n" format="1">
  <advance width="1319"/>
  <unicode hex="006E"/>
  <outline>
    <contour>
      <point x="76" y="0" type="line"/>
      <point x="433" y="0" type="line"/>
      <point x="559" y="912" type="line"/>
      <point x="573" y="1140" type="line"/>
      <point x="232" y="1140" type="line"/>
    </contour>
    <contour>
      <point x="515" y="668" type="line"/>
      <point x="572" y="799"/>
      <point x="675" y="887"/>
      <point x="754" y="887" type="curve" smooth="yes"/>
      <point x="808" y="887"/>
      <point x="839" y="862"/>
      <point x="835" y="788" type="curve" smooth="yes"/>
      <point x="832" y="723"/>
      <point x="821" y="626"/>
      <point x="807" y="510" type="curve" smooth="yes"/>
      <point x="786" y="336"/>
      <point x="757" y="135"/>
      <point x="737" y="0" type="curve"/>
      <point x="1094" y="0" type="line"/>
      <point x="1110" y="121"/>
      <point x="1141" y="328"/>
      <point x="1166" y="511" type="curve" smooth="yes"/>
      <point x="1188" y="672"/>
      <point x="1206" y="807"/>
      <point x="1206" y="854" type="curve" smooth="yes"/>
      <point x="1206" y="1078"/>
      <point x="1101" y="1156"/>
      <point x="929" y="1156" type="curve" smooth="yes"/>
      <point x="736" y="1156"/>
      <point x="583" y="1018"/>
      <point x="500" y="819" type="curve"/>
    </contour>
    <contour>
      <point x="553" y="-170" type="move" name="btm"/>
    </contour>
    <contour>
      <point x="850" y="1255" type="move" name="top"/>
    </contour>
  </outline>
</glyph>
<glyph name="o" format="1">
  <advance width="1181"/>
  <unicode hex="006F"/>
  <outline>
    <contour>
      <point x="419" y="429" type="curve" smooth="yes"/>
      <point x="419" y="654"/>
      <point x="486" y="942"/>
      <point x="648" y="942" type="curve" smooth="yes"/>
      <point x="718" y="942"/>
      <point x="758" y="878"/>
      <point x="758" y="705" type="curve" smooth="yes"/>
      <point x="758" y="470"/>
      <point x="695" y="198"/>
      <point x="529" y="198" type="curve" smooth="yes"/>
      <point x="460" y="198"/>
      <point x="419" y="266"/>
    </contour>
    <contour>
      <point x="65" y="469" type="curve" smooth="yes"/>
      <point x="65" y="208"/>
      <point x="183" y="-16"/>
      <point x="481" y="-16" type="curve" smooth="yes"/>
      <point x="903" y="-16"/>
      <point x="1116" y="308"/>
      <point x="1116" y="671" type="curve" smooth="yes"/>
      <point x="1116" y="932"/>
      <point x="999" y="1156"/>
      <point x="701" y="1156" type="curve" smooth="yes"/>
      <point x="279" y="1156"/>
      <point x="65" y="832"/>
    </contour>
    <contour>
      <point x="725" y="1255" type="move" name="top"/>
    </contour>
    <contour>
      <point x="631" y="-140" type="move" name="bottom"/>
    </contour>
  </outline>
</glyph>
<glyph name="t" format="1">
  <advance width="839"/>
  <unicode hex="0074"/>
  <outline>
    <contour>
      <point x="125" y="195" type="curve" smooth="yes"/>
      <point x="125" y="58"/>
      <point x="216" y="-20"/>
      <point x="360" y="-20" type="curve" smooth="yes"/>
      <point x="558" y="-20"/>
      <point x="709" y="71"/>
      <point x="790" y="136" type="curve"/>
      <point x="736" y="306" type="line"/>
      <point x="692" y="265"/>
      <point x="605" y="224"/>
      <point x="561" y="224" type="curve" smooth="yes"/>
      <point x="500" y="224"/>
      <point x="491" y="257"/>
      <point x="491" y="288" type="curve" smooth="yes"/>
      <point x="491" y="320"/>
      <point x="497" y="356"/>
      <point x="505" y="417" type="curve" smooth="yes"/>
      <point x="575" y="924" type="line"/>
      <point x="802" y="924" type="line"/>
      <point x="825" y="1140" type="line"/>
      <point x="603" y="1140" type="line"/>
      <point x="640" y="1416" type="line"/>
      <point x="373" y="1416" type="line"/>
      <point x="275" y="1140" type="line"/>
      <point x="170" y="1140" type="line"/>
      <point x="134" y="924" type="line"/>
      <point x="218" y="924" type="line"/>
      <point x="146" y="398" type="line" smooth="yes"/>
      <point x="134" y="313"/>
      <point x="125" y="210"/>
    </contour>
    <contour>
      <point x="333" y="-170" type="move" name="btm"/>
    </contour>
    <contour>
      <point x="536" y="1394" type="move" name="top"/>
    </contour>
    <contour>
      <point x="454" y="468" type="move" name="tbarbar"/>
    </contour>
  </outline>
</glyph>
<glyph name="cent" format="1">
  <advance width="1077"/>
  <unicode hex="00A2"/>
  <outline>
    <contour>
      <point x="542" y="1054" type="line"/>
      <point x="781" y="1054" type="line"/>
      <point x="867" y="1428" type="line"/>
      <point x="627" y="1428" type="line"/>
    </contour>
    <contour>
      <point x="363" y="103" type="line"/>
      <point x="294" y="-275" type="line"/>
      <point x="534" y="-275" type="line"/>
      <point x="603" y="103" type="line"/>
    </contour>
    <component base="c" xOffset="17"/>
  </outline>
</glyph>
<glyph name="sterling" format="1">
  <advance width="1426"/>
  <unicode hex="00A3"/>
  <outline>
    <contour>
      <point x="-62" y="117" type="curve" smooth="yes"/>
      <point x="-62" y="51"/>
      <point x="-15" y="-20"/>
      <point x="98" y="-20" type="curve" smooth="yes"/>
      <point x="167" y="-20"/>
      <point x="260" y="21"/>
      <point x="313" y="85" type="curve"/>
      <point x="479" y="68"/>
      <point x="666" y="-20"/>
      <point x="935" y="-20" type="curve" smooth="yes"/>
      <point x="1360" y="-20"/>
      <point x="1417" y="223"/>
      <point x="1417" y="377" type="curve" smooth="yes"/>
      <point x="1417" y="478"/>
      <point x="1350" y="620"/>
      <point x="1248" y="667" type="curve"/>
      <point x="1039" y="498" type="line"/>
      <point x="1059" y="487"/>
      <point x="1111" y="435"/>
      <point x="1111" y="380" type="curve" smooth="yes"/>
      <point x="1111" y="294"/>
      <point x="1022" y="235"/>
      <point x="851" y="235" type="curve" smooth="yes"/>
      <point x="749" y="235"/>
      <point x="591" y="267"/>
      <point x="531" y="287" type="curve"/>
      <point x="566" y="324"/>
      <point x="613" y="410"/>
      <point x="636" y="546" type="curve" smooth="yes"/>
      <point x="723" y="1075" type="line" smooth="yes"/>
      <point x="752" y="1253"/>
      <point x="822" y="1313"/>
      <point x="940" y="1313" type="curve" smooth="yes"/>
      <point x="1067" y="1313"/>
      <point x="1153" y="1202"/>
      <point x="1163" y="1170" type="curve"/>
      <point x="1335" y="1426" type="line"/>
      <point x="1297" y="1456"/>
      <point x="1185" y="1545"/>
      <point x="922" y="1545" type="curve" smooth="yes"/>
      <point x="578" y="1545"/>
      <point x="426" y="1317"/>
      <point x="388" y="1100" type="curve" smooth="yes"/>
      <point x="281" y="481" type="line" smooth="yes"/>
      <point x="265" y="387"/>
      <point x="230" y="340"/>
      <point x="212" y="317" type="curve"/>
      <point x="89" y="316"/>
      <point x="-62" y="239"/>
    </contour>
    <contour>
      <point x="153" y="719" type="line"/>
      <point x="978" y="719" type="line"/>
      <point x="1008" y="951" type="line"/>
      <point x="183" y="951" type="line"/>
    </contour>
  </outline>
</glyph>
<glyph name="brokenbar" format="1">
  <advance width="854"/>
  <unicode hex="00A6"/>
  <outline>
    <contour>
      <point x="320" y="916" type="line"/>
      <point x="573" y="916" type="line"/>
      <point x="573" y="1780" type="line"/>
      <point x="320" y="1780" type="line"/>
    </contour>
    <contour>
      <point x="320" y="-186" type="line"/>
      <point x="573" y="-186" type="line"/>
      <point x="573" y="678" type="line"/>
      <point x="320" y="678" type="line"/>
    </contour>
  </outline>
</glyph>
<glyph name="section" format="1">
  <advance width="1194"/>
  <unicode hex="00A7"/>
  <outline>
    <contour>
      <point x="774" y="417" type="curve"/>
      <point x="935" y="328" type="line"/>
      <point x="1073" y="399"/>
      <point x="1158" y="540"/>
      <point x="1158" y="667" type="curve" smooth="yes"/>
      <point x="1156" y="874"/>
      <point x="1001" y="1029"/>
      <point x="796" y="1132" type="curve" smooth="yes"/>
      <point x="646" y="1208"/>
      <point x="567" y="1232"/>
      <point x="569" y="1316" type="curve" smooth="yes"/>
      <point x="570" y="1384"/>
      <point x="633" y="1434"/>
      <point x="784" y="1434" type="curve" smooth="yes"/>
      <point x="852" y="1434"/>
      <point x="1040" y="1418"/>
      <point x="1092" y="1347" type="curve"/>
      <point x="1159" y="1568" type="line"/>
      <point x="1118" y="1603"/>
      <point x="974" y="1673"/>
      <point x="778" y="1673" type="curve" smooth="yes"/>
      <point x="427" y="1673"/>
      <point x="247" y="1503"/>
      <point x="247" y="1294" type="curve" smooth="yes"/>
      <point x="247" y="1037"/>
      <point x="446" y="976"/>
      <point x="628" y="882" type="curve" smooth="yes"/>
      <point x="832" y="769"/>
      <point x="879" y="712"/>
      <point x="877" y="613" type="curve" smooth="yes"/>
      <point x="875" y="498"/>
      <point x="801" y="461"/>
    </contour>
    <contour>
      <point x="124" y="179" type="curve"/>
      <point x="67" y="-72" type="line"/>
      <point x="112" y="-107"/>
      <point x="296" y="-187"/>
      <point x="487" y="-187" type="curve" smooth="yes"/>
      <point x="858" y="-187"/>
      <point x="1019" y="3"/>
      <point x="1019" y="192" type="curve" smooth="yes"/>
      <point x="1018" y="449"/>
      <point x="820" y="510"/>
      <point x="638" y="604" type="curve" smooth="yes"/>
      <point x="434" y="717"/>
      <point x="387" y="774"/>
      <point x="388" y="873" type="curve" smooth="yes"/>
      <point x="391" y="988"/>
      <point x="464" y="1036"/>
      <point x="491" y="1080" type="curve"/>
      <point x="330" y="1148" type="line"/>
      <point x="192" y="1077"/>
      <point x="98" y="967"/>
      <point x="99" y="830" type="curve" smooth="yes"/>
      <point x="100" y="623"/>
      <point x="260" y="474"/>
      <point x="462" y="372" type="curve" smooth="yes"/>
      <point x="612" y="298"/>
      <point x="705" y="264"/>
      <point x="703" y="182" type="curve" smooth="yes"/>
      <point x="702" y="114"/>
      <point x="667" y="65"/>
      <point x="500" y="65" type="curve" smooth="yes"/>
      <point x="419" y="65"/>
      <point x="196" y="98"/>
    </contour>
  </outline>
</glyph>
<glyph name="ordfeminine" format="1">
  <advance width="963"/>
  <unicode hex="00AA"/>
  <outline>
    <contour>
      <point x="672" y="726" type="line"/>
      <point x="890" y="726" type="line"/>
      <point x="1051" y="1573" type="line"/>
      <point x="757" y="1523" type="line"/>
      <point x="645" y="1020" type="line"/>
      <point x="660" y="1019" type="line"/>
    </contour>
    <contour>
      <point x="355" y="726" type="curve" smooth="yes"/>
      <point x="579" y="726"/>
      <point x="760" y="962"/>
      <point x="819" y="1117" type="curve"/>
      <point x="783" y="1292" type="line"/>
      <point x="750" y="1137"/>
      <point x="589" y="916"/>
      <point x="474" y="916" type="curve" smooth="yes"/>
      <point x="407" y="916"/>
      <point x="391" y="954"/>
      <point x="391" y="1030" type="curve" smooth="yes"/>
      <point x="391" y="1165"/>
      <point x="473" y="1432"/>
      <point x="686" y="1432" type="curve" smooth="yes"/>
      <point x="736" y="1432"/>
      <point x="788" y="1414"/>
      <point x="804" y="1383" type="curve"/>
      <point x="892" y="1545" type="line"/>
      <point x="844" y="1561"/>
      <point x="760" y="1577"/>
      <point x="692" y="1577" type="curve" smooth="yes"/>
      <point x="344" y="1576"/>
      <point x="92" y="1308"/>
      <point x="92" y="998" type="curve" smooth="yes"/>
      <point x="92" y="832"/>
      <point x="187" y="726"/>
    </contour>
  </outline>
</glyph>
<glyph name="logicalnot" format="1">
  <advance width="1370"/>
  <unicode hex="00AC"/>
  <outline>
    <contour>
      <point x="202" y="626" type="line"/>
      <point x="905" y="626" type="line"/>
      <point x="869" y="322" type="line"/>
      <point x="1126" y="322" type="line"/>
      <point x="1188" y="853" type="line"/>
      <point x="228" y="853" type="line"/>
    </contour>
  </outline>
</glyph>
<glyph name="registered" format="1">
  <advance width="2091"/>
  <unicode hex="00AE"/>
  <outline>
    <contour>
      <point x="700" y="486" type="line"/>
      <point x="925" y="486" type="line"/>
      <point x="925" y="834" type="line"/>
      <point x="948" y="834"/>
      <point x="1003" y="834"/>
      <point x="1016" y="835" type="curve"/>
      <point x="1110" y="794"/>
      <point x="1148" y="654"/>
      <point x="1188" y="573" type="curve" smooth="yes"/>
      <point x="1207" y="537"/>
      <point x="1216" y="509"/>
      <point x="1237" y="487" type="curve"/>
      <point x="1492" y="487" type="line"/>
      <point x="1456" y="532"/>
      <point x="1444" y="556"/>
      <point x="1426" y="586" type="curve" smooth="yes"/>
      <point x="1369" y="682"/>
      <point x="1336" y="802"/>
      <point x="1234" y="860" type="curve"/>
      <point x="1380" y="902"/>
      <point x="1428" y="1032"/>
      <point x="1428" y="1179" type="curve" smooth="yes"/>
      <point x="1428" y="1338"/>
      <point x="1307" y="1455"/>
      <point x="1061" y="1455" type="curve" smooth="yes"/>
      <point x="930" y="1455"/>
      <point x="881" y="1449"/>
      <point x="797" y="1449" type="curve" smooth="yes"/>
      <point x="700" y="1449" type="line"/>
    </contour>
    <contour>
      <point x="925" y="998" type="curve"/>
      <point x="925" y="1279" type="line"/>
      <point x="961" y="1291"/>
      <point x="989" y="1290"/>
      <point x="1026" y="1290" type="curve" smooth="yes"/>
      <point x="1155" y="1292"/>
      <point x="1202" y="1241"/>
      <point x="1202" y="1150" type="curve" smooth="yes"/>
      <point x="1202" y="1045"/>
      <point x="1146" y="991"/>
      <point x="1045" y="991" type="curve" smooth="yes"/>
      <point x="1008" y="991"/>
      <point x="954" y="992"/>
    </contour>
    <contour>
      <point x="313" y="962" type="curve" smooth="yes"/>
      <point x="313" y="1375"/>
      <point x="630" y="1710"/>
      <point x="1045" y="1710" type="curve" smooth="yes"/>
      <point x="1460" y="1710"/>
      <point x="1777" y="1375"/>
      <point x="1777" y="962" type="curve" smooth="yes"/>
      <point x="1777" y="548"/>
      <point x="1460" y="213"/>
      <point x="1045" y="213" type="curve" smooth="yes"/>
      <point x="630" y="213"/>
      <point x="313" y="548"/>
    </contour>
    <contour>
      <point x="171" y="962" type="curve" smooth="yes"/>
      <point x="171" y="475"/>
      <point x="559" y="83"/>
      <point x="1045" y="83" type="curve" smooth="yes"/>
      <point x="1531" y="83"/>
      <point x="1920" y="475"/>
      <point x="1920" y="962" type="curve" smooth="yes"/>
      <point x="1920" y="1448"/>
      <point x="1531" y="1838"/>
      <point x="1045" y="1838" type="curve" smooth="yes"/>
      <point x="559" y="1838"/>
      <point x="171" y="1448"/>
    </contour>
  </outline>
</glyph>
<glyph name="macron" format="1">
  <advance width="620"/>
  <unicode hex="00AF"/>
  <outline>
    <contour>
      <point x="16" y="1395" type="line"/>
      <point x="613" y="1395" type="line"/>
      <point x="631" y="1614" type="line"/>
      <point x="34" y="1614" type="line"/>
    </contour>
    <contour>
      <point x="307" y="1255" type="move" name="_top"/>
    </contour>
  </outline>
</glyph>
<glyph name="cedilla" format="1">
  <advance width="484"/>
  <unicode hex="00B8"/>
  <outline>
    <contour>
      <point x="227" y="30" type="line"/>
      <point x="234" y="4"/>
      <point x="238" y="-56"/>
      <point x="234" y="-124" type="curve" smooth="yes"/>
      <point x="228" y="-228"/>
      <point x="155" y="-249"/>
      <point x="52" y="-249" type="curve" smooth="yes"/>
      <point x="20" y="-249"/>
      <point x="-10" y="-241"/>
      <point x="-27" y="-233" type="curve"/>
      <point x="-63" y="-436" type="line"/>
      <point x="-40" y="-452"/>
      <point x="124" y="-471"/>
      <point x="177" y="-471" type="curve" smooth="yes"/>
      <point x="398" y="-471"/>
      <point x="478" y="-370"/>
      <point x="478" y="-238" type="curve" smooth="yes"/>
      <point x="478" y="-156"/>
      <point x="444" y="-6"/>
      <point x="416" y="30" type="curve"/>
      <point x="327" y="34" type="line"/>
    </contour>
    <contour>
      <point x="312" y="-170" type="move" name="_btm"/>
    </contour>
  </outline>
</glyph>
<glyph name="ordmasculine" format="1">
  <advance width="946"/>
  <unicode hex="00BA"/>
  <outline>
    <contour>
      <point x="466" y="716" type="curve" smooth="yes"/>
      <point x="753" y="716"/>
      <point x="1003" y="893"/>
      <point x="1003" y="1234" type="curve" smooth="yes"/>
      <point x="1003" y="1461"/>
      <point x="851" y="1589"/>
      <point x="627" y="1589" type="curve" smooth="yes"/>
      <point x="356" y="1589"/>
      <point x="100" y="1401"/>
      <point x="100" y="1071" type="curve" smooth="yes"/>
      <point x="100" y="846"/>
      <point x="266" y="716"/>
    </contour>
    <contour>
      <point x="495" y="884" type="curve" smooth="yes"/>
      <point x="421" y="884"/>
      <point x="390" y="958"/>
      <point x="390" y="1076" type="curve" smooth="yes"/>
      <point x="390" y="1194"/>
      <point x="436" y="1428"/>
      <point x="600" y="1428" type="curve" smooth="yes"/>
      <point x="686" y="1428"/>
      <point x="710" y="1369"/>
      <point x="710" y="1246" type="curve" smooth="yes"/>
      <point x="710" y="1112"/>
      <point x="679" y="884"/>
    </contour>
  </outline>
</glyph>
<glyph name="onequarter" format="1">
  <advance width="2560"/>
  <unicode hex="00BC"/>
  <outline>
    <contour>
      <point x="1367" y="56" type="line"/>
      <point x="2366" y="56" type="line"/>
      <point x="2390" y="279" type="line"/>
      <point x="1626" y="252" type="line"/>
      <point x="1692" y="338" type="line"/>
      <point x="2137" y="1007" type="line"/>
      <point x="1924" y="1111" type="line"/>
      <point x="1856" y="1110" type="line"/>
      <point x="1306" y="184" type="line"/>
    </contour>
    <contour>
      <point x="1859" y="-237" type="line"/>
      <point x="2137" y="-237" type="line"/>
      <point x="2230" y="534" type="line"/>
      <point x="1963" y="511" type="line"/>
    </contour>
    <contour>
      <point x="444" y="546" type="line"/>
      <point x="749" y="546" type="line"/>
      <point x="897" y="1624" type="line"/>
      <point x="728" y="1645" type="line"/>
      <point x="677" y="1604"/>
      <point x="452" y="1501"/>
      <point x="312" y="1466" type="curve"/>
      <point x="325" y="1308" type="line"/>
      <point x="556" y="1360" type="line"/>
    </contour>
    <component base="fraction" xOffset="649"/>
  </outline>
</glyph>
<glyph name="questiondown" format="1">
  <advance width="1068"/>
  <unicode hex="00BF"/>
  <outline>
    <contour>
      <point x="367" y="124" type="curve" smooth="yes"/>
      <point x="367" y="174"/>
      <point x="383" y="231"/>
      <point x="390" y="251" type="curve"/>
      <point x="418" y="296"/>
      <point x="496" y="360"/>
      <point x="651" y="429" type="curve" smooth="yes"/>
      <point x="858" y="532"/>
      <point x="903" y="608"/>
      <point x="903" y="727" type="curve" smooth="yes"/>
      <point x="903" y="819"/>
      <point x="839" y="929"/>
      <point x="780" y="970" type="curve"/>
      <point x="763" y="971" type="line"/>
      <point x="596" y="905" type="line"/>
      <point x="603" y="880"/>
      <point x="637" y="832"/>
      <point x="637" y="784" type="curve" smooth="yes"/>
      <point x="637" y="543"/>
      <point x="46" y="572"/>
      <point x="46" y="87" type="curve" smooth="yes"/>
      <point x="46" y="-158"/>
      <point x="218" y="-344"/>
      <point x="607" y="-344" type="curve" smooth="yes"/>
      <point x="686" y="-344"/>
      <point x="788" y="-321"/>
      <point x="822" y="-291" type="curve"/>
      <point x="878" y="-61" type="line"/>
      <point x="807" y="-79"/>
      <point x="743" y="-84"/>
      <point x="671" y="-84" type="curve" smooth="yes"/>
      <point x="483" y="-84"/>
      <point x="367" y="12"/>
    </contour>
    <contour>
      <point x="593" y="1096" type="curve" smooth="yes"/>
      <point x="722" y="1096"/>
      <point x="801" y="1199"/>
      <point x="801" y="1311" type="curve" smooth="yes"/>
      <point x="801" y="1400"/>
      <point x="742" y="1463"/>
      <point x="645" y="1463" type="curve" smooth="yes"/>
      <point x="516" y="1463"/>
      <point x="432" y="1376"/>
      <point x="432" y="1245" type="curve" smooth="yes"/>
      <point x="432" y="1165"/>
      <point x="475" y="1096"/>
    </contour>
  </outline>
</glyph>
<glyph name="AE" format="1">
  <advance width="1984"/>
  <unicode hex="00C6"/>
  <outline>
    <contour>
      <point x="346" y="296" type="line"/>
      <point x="1075" y="296" type="line"/>
      <point x="1080" y="547" type="line"/>
      <point x="350" y="547" type="line"/>
    </contour>
    <contour>
      <point x="-121" y="0" type="line"/>
      <point x="271" y="0" type="line"/>
      <point x="954" y="1278" type="line"/>
      <point x="1080" y="1265" type="line"/>
      <point x="1071" y="1530" type="line"/>
      <point x="428" y="1530" type="line"/>
      <point x="400" y="1360" type="line"/>
      <point x="642" y="1328" type="line"/>
    </contour>
    <contour>
      <point x="852" y="0" type="line"/>
      <point x="1841" y="0" type="line"/>
      <point x="1878" y="280" type="line"/>
      <point x="1245" y="270" type="line"/>
      <point x="1300" y="658" type="line"/>
      <point x="1721" y="649" type="line"/>
      <point x="1757" y="925" type="line"/>
      <point x="1338" y="920" type="line"/>
      <point x="1386" y="1257" type="line"/>
      <point x="1948" y="1255" type="line"/>
      <point x="1985" y="1530" type="line"/>
      <point x="1071" y="1530" type="line"/>
    </contour>
    <contour>
      <point x="1156" y="1700" type="move" name="top"/>
    </contour>
  </outline>
</glyph>
<glyph name="Oslash" format="1">
  <advance width="1393"/>
  <unicode hex="00D8"/>
  <outline>
    <contour>
      <point x="141" y="-83" type="line"/>
      <point x="230" y="-132" type="line"/>
      <point x="372" y="95" type="line"/>
      <point x="435" y="164" type="line"/>
      <point x="1061" y="1261" type="line"/>
      <point x="1166" y="1388" type="line"/>
      <point x="1300" y="1621" type="line"/>
      <point x="1211" y="1670" type="line"/>
      <point x="1087" y="1453" type="line"/>
      <point x="982" y="1326" type="line"/>
      <point x="368" y="244" type="line"/>
      <point x="292" y="156" type="line"/>
    </contour>
    <contour>
      <point x="618" y="-14" type="curve" smooth="yes"/>
      <point x="1084" y="-14"/>
      <point x="1364" y="427"/>
      <point x="1364" y="948" type="curve" smooth="yes"/>
      <point x="1364" y="1274"/>
      <point x="1183" y="1548"/>
      <point x="821" y="1548" type="curve" smooth="yes"/>
      <point x="349" y="1548"/>
      <point x="66" y="1102"/>
      <point x="66" y="580" type="curve" smooth="yes"/>
      <point x="66" y="255"/>
      <point x="249" y="-14"/>
    </contour>
    <contour>
      <point x="646" y="252" type="curve" smooth="yes"/>
      <point x="506" y="252"/>
      <point x="430" y="333"/>
      <point x="430" y="598" type="curve" smooth="yes"/>
      <point x="430" y="903"/>
      <point x="560" y="1282"/>
      <point x="783" y="1282" type="curve" smooth="yes"/>
      <point x="924" y="1282"/>
      <point x="1000" y="1202"/>
      <point x="1000" y="937" type="curve" smooth="yes"/>
      <point x="1000" y="622"/>
      <point x="869" y="252"/>
    </contour>
  </outline>
</glyph>
<glyph name="Thorn" format="1">
  <advance width="1306"/>
  <unicode hex="00DE"/>
  <outline>
    <contour>
      <point x="470" y="270" type="line"/>
      <point x="489" y="270"/>
      <point x="561" y="258"/>
      <point x="631" y="258" type="curve" smooth="yes"/>
      <point x="1055" y="258"/>
      <point x="1288" y="533"/>
      <point x="1287" y="863" type="curve" smooth="yes"/>
      <point x="1286" y="1143"/>
      <point x="1093" y="1288"/>
      <point x="749" y="1288" type="curve" smooth="yes"/>
      <point x="616" y="1288"/>
      <point x="498" y="1271"/>
      <point x="420" y="1271" type="curve"/>
      <point x="585" y="1037" type="line"/>
      <point x="614" y="1042"/>
      <point x="659" y="1042"/>
      <point x="685" y="1042" type="curve" smooth="yes"/>
      <point x="885" y="1042"/>
      <point x="948" y="962"/>
      <point x="940" y="832" type="curve" smooth="yes"/>
      <point x="928" y="639"/>
      <point x="829" y="523"/>
      <point x="637" y="523" type="curve" smooth="yes"/>
      <point x="589" y="523"/>
      <point x="532" y="527"/>
      <point x="508" y="535" type="curve"/>
      <point x="381" y="449" type="line"/>
    </contour>
    <contour>
      <point x="76" y="0" type="line"/>
      <point x="437" y="0" type="line"/>
      <point x="651" y="1530" type="line"/>
      <point x="291" y="1530" type="line"/>
    </contour>
  </outline>
</glyph>
<glyph name="eth" format="1">
  <advance width="1212"/>
  <unicode hex="00F0"/>
  <outline>
    <contour>
      <point x="66" y="423" type="curve" smooth="yes"/>
      <point x="66" y="209"/>
      <point x="209" y="-16"/>
      <point x="516" y="-16" type="curve" smooth="yes"/>
      <point x="935" y="-16"/>
      <point x="1146" y="341"/>
      <point x="1146" y="802" type="curve" smooth="yes"/>
      <point x="1146" y="1079"/>
      <point x="1062" y="1396"/>
      <point x="828" y="1599" type="curve" smooth="yes"/>
      <point x="711" y="1698"/>
      <point x="575" y="1777"/>
      <point x="428" y="1814" type="curve"/>
      <point x="368" y="1635" type="line"/>
      <point x="499" y="1598"/>
      <point x="581" y="1532"/>
      <point x="668" y="1437" type="curve" smooth="yes"/>
      <point x="728" y="1359"/>
      <point x="796" y="1265"/>
      <point x="802" y="1111" type="curve"/>
      <point x="771" y="1139"/>
      <point x="715" y="1158"/>
      <point x="621" y="1158" type="curve" smooth="yes"/>
      <point x="285" y="1158"/>
      <point x="66" y="881"/>
    </contour>
    <contour>
      <point x="440" y="411" type="curve" smooth="yes"/>
      <point x="440" y="659"/>
      <point x="503" y="975"/>
      <point x="640" y="975" type="curve" smooth="yes"/>
      <point x="726" y="975"/>
      <point x="784" y="916"/>
      <point x="781" y="869" type="curve" smooth="yes"/>
      <point x="781" y="817"/>
      <point x="764" y="612"/>
      <point x="754" y="551" type="curve" smooth="yes"/>
      <point x="727" y="346"/>
      <point x="645" y="182"/>
      <point x="546" y="182" type="curve" smooth="yes"/>
      <point x="477" y="182"/>
      <point x="440" y="283"/>
    </contour>
    <contour>
      <point x="602" y="1275" type="line"/>
      <point x="761" y="1452" type="line"/>
      <point x="778" y="1471" type="line"/>
      <point x="989" y="1706" type="line"/>
      <point x="871" y="1821" type="line"/>
      <point x="871" y="1821"/>
      <point x="698" y="1620"/>
      <point x="647" y="1573" type="curve"/>
      <point x="636" y="1551" type="line"/>
      <point x="476" y="1389" type="line"/>
    </contour>
  </outline>
</glyph>
<glyph name="Aogonek" format="1">
  <advance width="1357"/>
  <unicode hex="0104"/>
  <outline>
    <contour>
      <point x="723" y="-316" type="curve" smooth="yes"/>
      <point x="723" y="-421"/>
      <point x="807" y="-510"/>
      <point x="936" y="-510" type="curve" smooth="yes"/>
      <point x="1081" y="-510"/>
      <point x="1184" y="-470"/>
      <point x="1265" y="-387" type="curve"/>
      <point x="1224" y="-212" type="line"/>
      <point x="1168" y="-256"/>
      <point x="1126" y="-277"/>
      <point x="1071" y="-277" type="curve" smooth="yes"/>
      <point x="1032" y="-277"/>
      <point x="1004" y="-262"/>
      <point x="1004" y="-205" type="curve" smooth="yes"/>
      <point x="1004" y="-141"/>
      <point x="1114" y="-56"/>
      <point x="1250" y="0" type="curve"/>
      <point x="1129" y="21" type="line"/>
      <point x="1017" y="7" type="line"/>
      <point x="928" y="-23"/>
      <point x="723" y="-162"/>
    </contour>
    <component base="A" xOffset="12"/>
  </outline>
</glyph>
<glyph name="Dcroat" format="1">
  <advance width="1438"/>
  <unicode hex="0110"/>
  <outline>
    <contour>
      <point x="29" y="673" type="line"/>
      <point x="839" y="673" type="line"/>
      <point x="865" y="924" type="line"/>
      <point x="54" y="924" type="line"/>
    </contour>
    <component base="D" xOffset="13" yOffset="2"/>
  </outline>
</glyph>
<glyph name="eogonek" format="1">
  <advance width="1112"/>
  <unicode hex="0119"/>
  <outline>
    <contour>
      <point x="275" y="-316" type="curve" smooth="yes"/>
      <point x="275" y="-421"/>
      <point x="359" y="-510"/>
      <point x="488" y="-510" type="curve" smooth="yes"/>
      <point x="633" y="-510"/>
      <point x="736" y="-470"/>
      <point x="817" y="-387" type="curve"/>
      <point x="776" y="-212" type="line"/>
      <point x="720" y="-256"/>
      <point x="678" y="-277"/>
      <point x="623" y="-277" type="curve" smooth="yes"/>
      <point x="584" y="-277"/>
      <point x="556" y="-262"/>
      <point x="556" y="-205" type="curve" smooth="yes"/>
      <point x="556" y="-141"/>
      <point x="709" y="-4"/>
      <point x="830" y="68" type="curve"/>
      <point x="700" y="83" type="line"/>
      <point x="569" y="7" type="line"/>
      <point x="480" y="-23"/>
      <point x="275" y="-162"/>
    </contour>
    <component base="e"/>
  </outline>
</glyph>
<glyph name="gcommaaccent" format="1">
  <advance width="1269"/>
  <unicode hex="0123"/>
  <outline>
    <contour>
      <point x="779" y="1249" type="curve"/>
      <point x="935" y="1353" type="line"/>
      <point x="946" y="1446" type="line"/>
      <point x="906" y="1450"/>
      <point x="878" y="1497"/>
      <point x="878" y="1547" type="curve" smooth="yes"/>
      <point x="878" y="1619"/>
      <point x="924" y="1663"/>
      <point x="947" y="1676" type="curve"/>
      <point x="950" y="1702" type="line"/>
      <point x="849" y="1772" type="line"/>
      <point x="745" y="1753"/>
      <point x="620" y="1632"/>
      <point x="620" y="1461" type="curve" smooth="yes"/>
      <point x="620" y="1356"/>
      <point x="688" y="1268"/>
    </contour>
    <component base="g"/>
  </outline>
</glyph>
<glyph name="hbar" format="1">
  <advance width="1314"/>
  <unicode hex="0127"/>
  <outline>
    <contour>
      <point x="126" y="1262" type="line"/>
      <point x="808" y="1262" type="line"/>
      <point x="824" y="1392" type="line"/>
      <point x="142" y="1392" type="line"/>
    </contour>
    <component base="h"/>
  </outline>
</glyph>
<glyph name="Iogonek" format="1">
  <advance width="706"/>
  <unicode hex="012E"/>
  <outline>
    <contour>
      <point x="128" y="7" type="line"/>
      <point x="39" y="-23"/>
      <point x="-166" y="-162"/>
      <point x="-166" y="-316" type="curve" smooth="yes"/>
      <point x="-166" y="-421"/>
      <point x="-82" y="-510"/>
      <point x="47" y="-510" type="curve" smooth="yes"/>
      <point x="192" y="-510"/>
      <point x="295" y="-470"/>
      <point x="376" y="-387" type="curve"/>
      <point x="335" y="-212" type="line"/>
      <point x="279" y="-256"/>
      <point x="237" y="-277"/>
      <point x="182" y="-277" type="curve" smooth="yes"/>
      <point x="143" y="-277"/>
      <point x="115" y="-262"/>
      <point x="115" y="-205" type="curve" smooth="yes"/>
      <point x="115" y="-141"/>
      <point x="225" y="-56"/>
      <point x="361" y="0" type="curve"/>
      <point x="240" y="21" type="line"/>
    </contour>
    <component base="I"/>
  </outline>
</glyph>
<glyph name="Eng" format="1">
  <advance width="1512"/>
  <unicode hex="014A"/>
  <outline>
    <contour>
      <point x="638" y="-286" type="curve"/>
      <point x="695" y="-414" type="line"/>
      <point x="1043" y="-389"/>
      <point x="1243" y="-194"/>
      <point x="1278" y="0" type="curve"/>
      <point x="966" y="86" type="line"/>
      <point x="949" y="-85"/>
      <point x="889" y="-185"/>
    </contour>
    <component base="N" xOffset="12"/>
  </outline>
</glyph>
<glyph name="OE" format="1">
  <advance width="2211"/>
  <unicode hex="0152"/>
  <outline>
    <contour>
      <point x="66" y="578" type="curve" smooth="yes"/>
      <point x="66" y="253"/>
      <point x="249" y="-16"/>
      <point x="618" y="-16" type="curve" smooth="yes"/>
      <point x="1084" y="-16"/>
      <point x="1364" y="425"/>
      <point x="1364" y="946" type="curve" smooth="yes"/>
      <point x="1364" y="1272"/>
      <point x="1183" y="1546"/>
      <point x="821" y="1546" type="curve" smooth="yes"/>
      <point x="349" y="1546"/>
      <point x="66" y="1100"/>
    </contour>
    <contour>
      <point x="430" y="596" type="curve" smooth="yes"/>
      <point x="430" y="901"/>
      <point x="560" y="1280"/>
      <point x="783" y="1280" type="curve" smooth="yes"/>
      <point x="924" y="1280"/>
      <point x="1000" y="1200"/>
      <point x="1000" y="935" type="curve" smooth="yes"/>
      <point x="1000" y="620"/>
      <point x="869" y="250"/>
      <point x="646" y="250" type="curve" smooth="yes"/>
      <point x="506" y="250"/>
      <point x="430" y="331"/>
    </contour>
    <component base="E" xOffset="1007"/>
  </outline>
</glyph>
<glyph name="oe" format="1">
  <advance width="1775"/>
  <unicode hex="0153"/>
  <outline>
    <contour>
      <point x="481" y="-16" type="curve" smooth="yes"/>
      <point x="671" y="-16"/>
      <point x="808" y="53"/>
      <point x="913" y="163" type="curve"/>
      <point x="743" y="519" type="line"/>
      <point x="716" y="344"/>
      <point x="650" y="198"/>
      <point x="529" y="198" type="curve" smooth="yes"/>
      <point x="460" y="198"/>
      <point x="419" y="257"/>
      <point x="419" y="420" type="curve" smooth="yes"/>
      <point x="419" y="645"/>
      <point x="486" y="942"/>
      <point x="648" y="942" type="curve" smooth="yes"/>
      <point x="718" y="942"/>
      <point x="758" y="890"/>
      <point x="758" y="717" type="curve" smooth="yes"/>
      <point x="758" y="676"/>
      <point x="756" y="634"/>
      <point x="752" y="591" type="curve"/>
      <point x="1047" y="952" type="line"/>
      <point x="985" y="1074"/>
      <point x="881" y="1156"/>
      <point x="701" y="1156" type="curve" smooth="yes"/>
      <point x="279" y="1156"/>
      <point x="65" y="823"/>
      <point x="65" y="460" type="curve" smooth="yes"/>
      <point x="65" y="199"/>
      <point x="183" y="-16"/>
    </contour>
    <contour>
      <point x="736" y="442" type="curve" smooth="yes"/>
      <point x="736" y="205"/>
      <point x="860" y="-16"/>
      <point x="1169" y="-16" type="curve" smooth="yes"/>
      <point x="1429" y="-16"/>
      <point x="1613" y="133"/>
      <point x="1672" y="218" type="curve"/>
      <point x="1580" y="389" type="line"/>
      <point x="1531" y="324"/>
      <point x="1384" y="226"/>
      <point x="1257" y="226" type="curve" smooth="yes"/>
      <point x="1139" y="226"/>
      <point x="1112" y="287"/>
      <point x="1112" y="383" type="curve"/>
      <point x="1445" y="467"/>
      <point x="1719" y="594"/>
      <point x="1719" y="893" type="curve" smooth="yes"/>
      <point x="1719" y="1054"/>
      <point x="1615" y="1156"/>
      <point x="1379" y="1156" type="curve" smooth="yes"/>
      <point x="1020" y="1156"/>
      <point x="736" y="857"/>
    </contour>
    <contour>
      <point x="1107" y="561" type="curve"/>
      <point x="1110" y="701"/>
      <point x="1173" y="960"/>
      <point x="1300" y="960" type="curve" smooth="yes"/>
      <point x="1353" y="960"/>
      <point x="1375" y="929"/>
      <point x="1375" y="859" type="curve" smooth="yes"/>
      <point x="1375" y="698"/>
      <point x="1225" y="568"/>
    </contour>
  </outline>
</glyph>
<glyph name="Tbar" format="1">
  <advance width="1165"/>
  <unicode hex="0166"/>
  <outline>
    <contour>
      <point x="188" y="635" type="line"/>
      <point x="1027" y="635" type="line"/>
      <point x="1058" y="886" type="line"/>
      <point x="218" y="886" type="line"/>
    </contour>
    <component base="T" xOffset="12"/>
    <contour>
      <point x="670" y="-170" type="move" name="btm"/>
    </contour>
    <contour>
      <point x="881" y="1700" type="move" name="top"/>
    </contour>
  </outline>
</glyph>
<glyph name="circumflex" format="1">
  <advance width="803"/>
  <unicode hex="02C6"/>
  <outline>
    <contour>
      <point x="173" y="1229" type="line"/>
      <point x="463" y="1402" type="line"/>
      <point x="643" y="1228" type="line"/>
      <point x="798" y="1296" type="line"/>
      <point x="586" y="1670" type="line"/>
      <point x="406" y="1670" type="line"/>
      <point x="35" y="1296" type="line"/>
    </contour>
    <contour>
      <point x="408" y="1255" type="move" name="_top"/>
    </contour>
  </outline>
</glyph>
<glyph name="dotaccent" format="1">
  <advance width="392"/>
  <unicode hex="02D9"/>
  <outline>
    <contour>
      <point x="170" y="1313" type="curve" smooth="yes"/>
      <point x="313" y="1313"/>
      <point x="386" y="1404"/>
      <point x="388" y="1515" type="curve" smooth="yes"/>
      <point x="390" y="1605"/>
      <point x="318" y="1681"/>
      <point x="211" y="1681" type="curve" smooth="yes"/>
      <point x="87" y="1681"/>
      <point x="3" y="1589"/>
      <point x="1" y="1480" type="curve" smooth="yes"/>
      <point x="-1" y="1387"/>
      <point x="80" y="1313"/>
    </contour>
    <contour>
      <point x="157" y="1255" type="move" name="_top"/>
    </contour>
  </outline>
</glyph>
<glyph name="Germandbls" format="1">
  <advance width="1512"/>
  <unicode hex="1E9E"/>
  <outline>
    <contour>
      <point x="891" y="-23" type="curve" smooth="yes"/>
      <point x="676" y="-23"/>
      <point x="583" y="18"/>
      <point x="513" y="58" type="curve"/>
      <point x="630" y="273" type="line"/>
      <point x="671" y="238"/>
      <point x="765" y="195"/>
      <point x="868" y="195" type="curve" smooth="yes"/>
      <point x="980" y="195"/>
      <point x="1131" y="275"/>
      <point x="1131" y="496" type="curve" smooth="yes"/>
      <point x="1131" y="653"/>
      <point x="1016" y="737"/>
      <point x="741" y="737" type="curve"/>
      <point x="762" y="879" type="line"/>
      <point x="1100" y="1276" type="line"/>
      <point x="1057" y="1304"/>
      <point x="988" y="1322"/>
      <point x="913" y="1322" type="curve" smooth="yes"/>
      <point x="693" y="1322"/>
      <point x="533" y="1172"/>
      <point x="496" y="868" type="curve"/>
      <point x="375" y="0" type="line"/>
      <point x="65" y="0" type="line"/>
      <point x="170" y="753" type="line"/>
      <point x="231" y="1241"/>
      <point x="500" y="1538"/>
      <point x="937" y="1538" type="curve" smooth="yes"/>
      <point x="1205" y="1538"/>
      <point x="1344" y="1443"/>
      <point x="1444" y="1443" type="curve"/>
      <point x="1413" y="1230" type="line"/>
      <point x="1109" y="896" type="line"/>
      <point x="1249" y="896"/>
      <point x="1446" y="768"/>
      <point x="1446" y="531" type="curve" smooth="yes"/>
      <point x="1446" y="210"/>
      <point x="1210" y="-23"/>
    </contour>
  </outline>
</glyph>
<glyph name="endash" format="1">
  <advance width="1538"/>
  <unicode hex="2013"/>
  <outline>
    <contour>
      <point x="223" y="648" type="line"/>
      <point x="1322" y="648" type="line"/>
      <point x="1359" y="896" type="line"/>
      <point x="260" y="896" type="line"/>
    </contour>
  </outline>
</glyph>
<glyph name="quotereversed" format="1">
  <advance width="688"/>
  <unicode hex="201B"/>
  <outline>
    <contour>
      <point x="450" y="886" type="curve"/>
      <point x="582" y="1003" type="line"/>
      <point x="586" y="1025" type="line"/>
      <point x="541" y="1065"/>
      <point x="481" y="1166"/>
      <point x="481" y="1280" type="curve" smooth="yes"/>
      <point x="481" y="1392"/>
      <point x="541" y="1495"/>
      <point x="628" y="1526" type="curve"/>
      <point x="634" y="1567" type="line"/>
      <point x="497" y="1771" type="line"/>
      <point x="363" y="1754"/>
      <point x="206" y="1591"/>
      <point x="206" y="1369" type="curve" smooth="yes"/>
      <point x="206" y="1159"/>
      <point x="316" y="993"/>
    </contour>
  </outline>
</glyph>
<glyph name="daggerdbl" format="1">
  <advance width="815"/>
  <unicode hex="2021"/>
  <outline>
    <contour>
      <point x="238" y="-51" type="line"/>
      <point x="410" y="-51" type="line"/>
      <point x="510" y="352" type="line"/>
      <point x="533" y="576" type="line"/>
      <point x="797" y="576" type="line"/>
      <point x="825" y="779" type="line"/>
      <point x="567" y="779" type="line"/>
      <point x="595" y="944" type="line"/>
      <point x="611" y="1063" type="line"/>
      <point x="852" y="1063" type="line"/>
      <point x="885" y="1277" type="line"/>
      <point x="634" y="1277" type="line"/>
      <point x="673" y="1469" type="line"/>
      <point x="703" y="1646" type="line"/>
      <point x="453" y="1646" type="line"/>
      <point x="429" y="1469" type="line"/>
      <point x="407" y="1277" type="line"/>
      <point x="158" y="1277" type="line"/>
      <point x="126" y="1063" type="line"/>
      <point x="362" y="1063" type="line"/>
      <point x="346" y="944" type="line"/>
      <point x="325" y="779" type="line"/>
      <point x="89" y="779" type="line"/>
      <point x="58" y="576" type="line"/>
      <point x="299" y="576" type="line"/>
      <point x="259" y="340" type="line"/>
    </contour>
  </outline>
</glyph>
<glyph name="peseta" format="1">
  <advance width="1604"/>
  <unicode hex="20A7"/>
  <outline>
    <contour>
      <point x="148" y="927" type="line"/>
      <point x="168" y="1074" type="line"/>
      <point x="339" y="1074" type="line"/>
      <point x="401" y="1524" type="line"/>
      <point x="562" y="1524" type="line" smooth="yes"/>
      <point x="671" y="1524"/>
      <point x="803" y="1540"/>
      <point x="954" y="1540" type="curve" smooth="yes"/>
      <point x="1294" y="1540"/>
      <point x="1485" y="1414"/>
      <point x="1458" y="1074" type="curve"/>
      <point x="1635" y="1074" type="line"/>
      <point x="1615" y="927" type="line"/>
      <point x="1435" y="927" type="line"/>
      <point x="1362" y="631"/>
      <point x="1131" y="472"/>
      <point x="775" y="472" type="curve" smooth="yes"/>
      <point x="678" y="472"/>
      <point x="623" y="473"/>
      <point x="587" y="476" type="curve"/>
      <point x="523" y="0" type="line"/>
      <point x="193" y="0" type="line"/>
      <point x="319" y="927" type="line"/>
    </contour>
    <contour>
      <point x="700" y="1299" type="curve"/>
      <point x="669" y="1074" type="line"/>
      <point x="1138" y="1074" type="line"/>
      <point x="1143" y="1226"/>
      <point x="1067" y="1317"/>
      <point x="888" y="1314" type="curve" smooth="yes"/>
      <point x="832" y="1313"/>
      <point x="756" y="1308"/>
    </contour>
    <contour>
      <point x="620" y="712" type="line"/>
      <point x="669" y="705"/>
      <point x="725" y="702"/>
      <point x="805" y="703" type="curve"/>
      <point x="957" y="703"/>
      <point x="1067" y="770"/>
      <point x="1114" y="927" type="curve"/>
      <point x="649" y="927" type="line"/>
    </contour>
  </outline>
</glyph>
<glyph name="won" format="1">
  <advance width="2217"/>
  <unicode hex="20A9"/>
  <outline>
    <contour>
      <point x="109" y="967" type="line"/>
      <point x="127" y="1138" type="line"/>
      <point x="318" y="1138" type="line"/>
      <point x="268" y="1530" type="line"/>
      <point x="570" y="1530" type="line"/>
      <point x="608" y="1138" type="line"/>
      <point x="1001" y="1138" type="line"/>
      <point x="1033" y="1218" type="line"/>
      <point x="999" y="1530" type="line"/>
      <point x="1290" y="1530" type="line"/>
      <point x="1326" y="1138" type="line"/>
      <point x="1688" y="1138" type="line"/>
      <point x="1833" y="1530" type="line"/>
      <point x="2141" y="1530" type="line"/>
      <point x="1987" y="1138" type="line"/>
      <point x="2188" y="1138" type="line"/>
      <point x="2169" y="967" type="line"/>
      <point x="1919" y="967" type="line"/>
      <point x="1847" y="782" type="line"/>
      <point x="2144" y="782" type="line"/>
      <point x="2127" y="611" type="line"/>
      <point x="1780" y="611" type="line"/>
      <point x="1539" y="-2" type="line"/>
      <point x="1172" y="-2" type="line"/>
      <point x="1107" y="611" type="line"/>
      <point x="1029" y="611" type="line"/>
      <point x="801" y="-2" type="line"/>
      <point x="464" y="-2" type="line"/>
      <point x="385" y="611" type="line"/>
      <point x="67" y="611" type="line"/>
      <point x="86" y="782" type="line"/>
      <point x="363" y="782" type="line"/>
      <point x="340" y="967" type="line"/>
    </contour>
    <contour>
      <point x="1341" y="967" type="line"/>
      <point x="1358" y="782" type="line"/>
      <point x="1556" y="782" type="line"/>
      <point x="1625" y="967" type="line"/>
    </contour>
    <contour>
      <point x="624" y="967" type="line"/>
      <point x="642" y="782" type="line"/>
      <point x="859" y="782" type="line"/>
      <point x="933" y="967" type="line"/>
    </contour>
    <contour>
      <point x="1403" y="304" type="line"/>
      <point x="1461" y="525" type="line"/>
      <point x="1493" y="611" type="line"/>
      <point x="1374" y="611" type="line"/>
      <point x="1382" y="525" type="line"/>
    </contour>
    <contour>
      <point x="690" y="304" type="line"/>
      <point x="756" y="525" type="line"/>
      <point x="790" y="611" type="line"/>
      <point x="659" y="611" type="line"/>
      <point x="667" y="525" type="line"/>
    </contour>
  </outline>
</glyph>
<glyph name="dong" format="1">
  <advance width="1390"/>
  <unicode hex="20AB"/>
  <outline>
    <contour>
      <point x="840" y="291" type="line" smooth="yes"/>
      <point x="825" y="291"/>
      <point x="822" y="305"/>
      <point x="822" y="317" type="curve" smooth="yes"/>
      <point x="822" y="321"/>
      <point x="823" y="325"/>
      <point x="823" y="328" type="curve" smooth="yes"/>
      <point x="823" y="329"/>
      <point x="829" y="379"/>
      <point x="832" y="400" type="curve"/>
      <point x="784" y="360"/>
      <point x="693" y="291"/>
      <point x="512" y="291" type="curve" smooth="yes"/>
      <point x="314" y="291"/>
      <point x="157" y="405"/>
      <point x="157" y="646" type="curve" smooth="yes"/>
      <point x="157" y="1009"/>
      <point x="407" y="1248"/>
      <point x="751" y="1248" type="curve" smooth="yes"/>
      <point x="831" y="1248"/>
      <point x="883" y="1237"/>
      <point x="918" y="1226" type="curve"/>
      <point x="933" y="1357" type="line"/>
      <point x="668" y="1357" type="line"/>
      <point x="691" y="1521" type="line"/>
      <point x="957" y="1521" type="line"/>
      <point x="982" y="1694" type="line"/>
      <point x="1279" y="1694" type="line"/>
      <point x="1254" y="1521" type="line"/>
      <point x="1468" y="1521" type="line"/>
      <point x="1445" y="1357" type="line"/>
      <point x="1231" y="1357" type="line"/>
      <point x="1081" y="291" type="line"/>
    </contour>
    <contour>
      <point x="602" y="506" type="curve" smooth="yes"/>
      <point x="739" y="506"/>
      <point x="794" y="555"/>
      <point x="821" y="574" type="curve"/>
      <point x="881" y="1005" type="line"/>
      <point x="867" y="1019"/>
      <point x="832" y="1042"/>
      <point x="729" y="1042" type="curve" smooth="yes"/>
      <point x="545" y="1042"/>
      <point x="460" y="879"/>
      <point x="460" y="683" type="curve" smooth="yes"/>
      <point x="460" y="558"/>
      <point x="522" y="506"/>
    </contour>
    <contour>
      <point x="48" y="0" type="line"/>
      <point x="75" y="193" type="line"/>
      <point x="1160" y="193" type="line"/>
      <point x="1133" y="0" type="line"/>
    </contour>
  </outline>
</glyph>
<glyph name="liraTurkish" format="1">
  <advance width="1452"/>
  <unicode hex="20BA"/>
  <outline>
    <contour>
      <point x="1056" y="719" type="curve"/>
      <point x="1384" y="719" type="line"/>
      <point x="1377" y="664" type="line" smooth="yes"/>
      <point x="1324" y="256"/>
      <point x="1066" y="0"/>
      <point x="595" y="0" type="curve" smooth="yes"/>
      <point x="259" y="0" type="line"/>
      <point x="331" y="565" type="line"/>
      <point x="24" y="434" type="line"/>
      <point x="41" y="617" type="line"/>
      <point x="354" y="751" type="line"/>
      <point x="377" y="927" type="line"/>
      <point x="59" y="790" type="line"/>
      <point x="77" y="975" type="line"/>
      <point x="401" y="1115" type="line"/>
      <point x="453" y="1526" type="line"/>
      <point x="789" y="1526" type="line"/>
      <point x="754" y="1267" type="line"/>
      <point x="1177" y="1450" type="line"/>
      <point x="1160" y="1265" type="line"/>
      <point x="729" y="1079" type="line"/>
      <point x="705" y="901" type="line"/>
      <point x="1108" y="1074" type="line"/>
      <point x="1091" y="892" type="line"/>
      <point x="680" y="715" type="line"/>
      <point x="619" y="263" type="line"/>
      <point x="621" y="253" type="line"/>
      <point x="622" y="262" type="line"/>
      <point x="933" y="262"/>
      <point x="1021" y="439"/>
    </contour>
  </outline>
</glyph>
<glyph name="trademark" format="1">
  <advance width="2120"/>
  <unicode hex="2122"/>
  <outline>
    <contour>
      <point x="893" y="714" type="line"/>
      <point x="1094" y="714" type="line"/>
      <point x="1176" y="1255" type="line"/>
      <point x="1206" y="1440" type="line"/>
      <point x="1240" y="1255" type="line"/>
      <point x="1361" y="706" type="line"/>
      <point x="1538" y="706" type="line"/>
      <point x="1815" y="1350" type="line"/>
      <point x="1853" y="1440" type="line"/>
      <point x="1836" y="1255" type="line"/>
      <point x="1795" y="714" type="line"/>
      <point x="1989" y="714" type="line"/>
      <point x="2026" y="1530" type="line"/>
      <point x="1708" y="1530" type="line"/>
      <point x="1468" y="951" type="line"/>
      <point x="1443" y="1134" type="line"/>
      <point x="1356" y="1530" type="line"/>
      <point x="1043" y="1530" type="line"/>
    </contour>
    <contour>
      <point x="326" y="713" type="line"/>
      <point x="517" y="714" type="line"/>
      <point x="611" y="1360" type="line"/>
      <point x="851" y="1360" type="line"/>
      <point x="873" y="1530" type="line"/>
      <point x="207" y="1530" type="line"/>
      <point x="179" y="1360" type="line"/>
      <point x="420" y="1360" type="line"/>
    </contour>
  </outline>
</glyph>
<glyph name="partialdiff" format="1">
  <advance width="1354"/>
  <unicode hex="2202"/>
  <outline>
    <contour>
      <point x="121" y="537" type="curve" smooth="yes"/>
      <point x="125" y="231"/>
      <point x="363" y="-16"/>
      <point x="645" y="-16" type="curve" smooth="yes"/>
      <point x="1073" y="-16"/>
      <point x="1278" y="253"/>
      <point x="1278" y="797" type="curve" smooth="yes"/>
      <point x="1278" y="1272"/>
      <point x="1052" y="1732"/>
      <point x="534" y="1732" type="curve" smooth="yes"/>
      <point x="387" y="1732"/>
      <point x="237" y="1680"/>
      <point x="124" y="1587" type="curve"/>
      <point x="236" y="1387" type="line"/>
      <point x="301" y="1435"/>
      <point x="404" y="1467"/>
      <point x="489" y="1467" type="curve" smooth="yes"/>
      <point x="724" y="1467"/>
      <point x="874" y="1300"/>
      <point x="920" y="1046" type="curve"/>
      <point x="865" y="1075"/>
      <point x="800" y="1098"/>
      <point x="697" y="1098" type="curve" smooth="yes"/>
      <point x="412" y="1098"/>
      <point x="116" y="968"/>
    </contour>
    <contour>
      <point x="709" y="230" type="curve" smooth="yes"/>
      <point x="531" y="230"/>
      <point x="478" y="369"/>
      <point x="474" y="548" type="curve" smooth="yes"/>
      <point x="470" y="775"/>
      <point x="547" y="874"/>
      <point x="713" y="874" type="curve" smooth="yes"/>
      <point x="803" y="874"/>
      <point x="869" y="846"/>
      <point x="934" y="796" type="curve"/>
      <point x="932" y="662"/>
      <point x="960" y="230"/>
    </contour>
  </outline>
</glyph>
<glyph name="summation" format="1">
  <advance width="1503"/>
  <unicode hex="2211"/>
  <outline>
    <contour>
      <point x="163" y="-99" type="line"/>
      <point x="189" y="-170" type="line"/>
      <point x="1349" y="-170" type="line"/>
      <point x="1349" y="97" type="line"/>
      <point x="689" y="97" type="line"/>
      <point x="1078" y="689" type="line"/>
      <point x="687" y="1243" type="line"/>
      <point x="1291" y="1243" type="line"/>
      <point x="1291" y="1522" type="line"/>
      <point x="193" y="1522" type="line"/>
      <point x="163" y="1442" type="line"/>
      <point x="710" y="683" type="line"/>
    </contour>
  </outline>
</glyph>
<glyph name="minus" format="1">
  <advance width="1266"/>
  <unicode hex="2212"/>
  <outline>
    <contour>
      <point x="223" y="648" type="line"/>
      <point x="1063" y="648" type="line"/>
      <point x="1100" y="896" type="line"/>
      <point x="260" y="896" type="line"/>
    </contour>
  </outline>
</glyph>
<glyph name="infinity" format="1">
  <advance width="2101"/>
  <unicode hex="221E"/>
  <outline>
    <contour>
      <point x="611" y="150" type="curve" smooth="yes"/>
      <point x="793" y="152"/>
      <point x="933" y="251"/>
      <point x="1037" y="372" type="curve"/>
      <point x="1134" y="243"/>
      <point x="1275" y="145"/>
      <point x="1529" y="145" type="curve" smooth="yes"/>
      <point x="1848" y="145"/>
      <point x="2041" y="355"/>
      <point x="2041" y="613" type="curve" smooth="yes"/>
      <point x="2041" y="864"/>
      <point x="1887" y="1082"/>
      <point x="1531" y="1079" type="curve" smooth="yes"/>
      <point x="1347" y="1078"/>
      <point x="1200" y="974"/>
      <point x="1091" y="851" type="curve"/>
      <point x="991" y="981"/>
      <point x="847" y="1083"/>
      <point x="597" y="1084" type="curve" smooth="yes"/>
      <point x="281" y="1085"/>
      <point x="87" y="879"/>
      <point x="87" y="624" type="curve" smooth="yes"/>
      <point x="87" y="373"/>
      <point x="252" y="145"/>
    </contour>
    <contour>
      <point x="1215" y="670" type="curve"/>
      <point x="1307" y="785"/>
      <point x="1400" y="831"/>
      <point x="1490" y="831" type="curve" smooth="yes"/>
      <point x="1651" y="831"/>
      <point x="1730" y="739"/>
      <point x="1730" y="625" type="curve" smooth="yes"/>
      <point x="1730" y="487"/>
      <point x="1648" y="400"/>
      <point x="1530" y="400" type="curve" smooth="yes"/>
      <point x="1397" y="400"/>
      <point x="1287" y="536"/>
    </contour>
    <contour>
      <point x="632" y="398" type="curve" smooth="yes"/>
      <point x="472" y="398"/>
      <point x="396" y="501"/>
      <point x="396" y="614" type="curve" smooth="yes"/>
      <point x="396" y="744"/>
      <point x="477" y="825"/>
      <point x="592" y="825" type="curve" smooth="yes"/>
      <point x="724" y="825"/>
      <point x="839" y="691"/>
      <point x="912" y="558" type="curve"/>
      <point x="817" y="444"/>
      <point x="721" y="398"/>
    </contour>
  </outline>
</glyph>
<glyph name="lessequal" format="1">
  <advance width="1391"/>
  <unicode hex="2264"/>
  <outline>
    <contour>
      <point x="153" y="0" type="line"/>
      <point x="1098" y="0" type="line"/>
      <point x="1114" y="207" type="line"/>
      <point x="170" y="207" type="line"/>
    </contour>
    <contour>
      <point x="207" y="703" type="line"/>
      <point x="1115" y="251" type="line"/>
      <point x="1145" y="522" type="line"/>
      <point x="677" y="733" type="line"/>
      <point x="1190" y="939" type="line"/>
      <point x="1229" y="1228" type="line"/>
      <point x="212" y="782" type="line"/>
    </contour>
  </outline>
</glyph>
<glyph name="lozenge" format="1">
  <advance width="1375"/>
  <unicode hex="25CA"/>
  <outline>
    <contour>
      <point x="699" y="-2" type="line"/>
      <point x="704" y="-2" type="line"/>
      <point x="1319" y="768" type="line"/>
      <point x="1319" y="781" type="line"/>
      <point x="704" y="1549" type="line"/>
      <point x="700" y="1549" type="line"/>
      <point x="85" y="781" type="line"/>
      <point x="85" y="768" type="line"/>
    </contour>
    <contour>
      <point x="700" y="415" type="line"/>
      <point x="428" y="771" type="line"/>
      <point x="428" y="776" type="line"/>
      <point x="700" y="1116" type="line"/>
      <point x="703" y="1116" type="line"/>
      <point x="976" y="776" type="line"/>
      <point x="976" y="773" type="line"/>
      <point x="703" y="415" type="line"/>
    </contour>
  </outline>
</glyph>
<glyph name="IJ_acutecomb" format="1">
  <advance width="1403"/>
  <outline>
    <contour>
      <point x="98" y="0" type="line"/>
      <point x="452" y="0" type="line"/>
      <point x="671" y="1530" type="line"/>
      <point x="317" y="1530" type="line"/>
    </contour>
    <contour>
      <point x="545" y="1550" type="line"/>
      <point x="642" y="1586"/>
      <point x="838" y="1726"/>
      <point x="891" y="1827" type="curve"/>
      <point x="681" y="2014" type="line"/>
      <point x="402" y="1672" type="line"/>
    </contour>
    <contour>
      <point x="809" y="86" type="curve" smooth="yes"/>
      <point x="786" y="-45"/>
      <point x="699" y="-196"/>
      <point x="526" y="-239" type="curve"/>
      <point x="570" y="-357" type="line"/>
      <point x="807" y="-357"/>
      <point x="1071" y="-266"/>
      <point x="1156" y="75" type="curve" smooth="yes"/>
      <point x="1183" y="173"/>
      <point x="1271" y="849"/>
      <point x="1373" y="1530" type="curve"/>
      <point x="1017" y="1530" type="line"/>
      <point x="956" y="1095"/>
      <point x="889" y="478"/>
    </contour>
    <component base="acute.cap" xOffset="1058"/>
  </outline>
</glyph>
<glyph name="acute.cap" format="1">
  <advance width="532"/>
  <outline>
    <contour>
      <point x="164" y="1550" type="line"/>
      <point x="261" y="1586"/>
      <point x="457" y="1726"/>
      <point x="510" y="1827" type="curve"/>
      <point x="300" y="2014" type="line"/>
      <point x="21" y="1672" type="line"/>
    </contour>
    <contour>
      <point x="110" y="1700" type="move" name="_top"/>
    </contour>
  </outline>
</glyph>
<glyph name="circumflex.cap" format="1">
  <advance width="802"/>
  <outline>
    <contour>
      <point x="167" y="1599" type="line"/>
      <point x="454" y="1766" type="line"/>
      <point x="637" y="1599" type="line"/>
      <point x="782" y="1677" type="line"/>
      <point x="570" y="2014" type="line"/>
      <point x="390" y="2014" type="line"/>
      <point x="19" y="1666" type="line"/>
    </contour>
    <contour>
      <point x="374" y="1700" type="move" name="_top"/>
    </contour>
  </outline>
</glyph>
<glyph name="dieresis.cap" format="1">
  <advance width="814"/>
  <outline>
    <contour>
      <point x="322" y="1632" type="curve" smooth="yes"/>
      <point x="452" y="1632"/>
      <point x="509" y="1723"/>
      <point x="511" y="1834" type="curve" smooth="yes"/>
      <point x="513" y="1914"/>
      <point x="452" y="1995"/>
      <point x="356" y="1995" type="curve" smooth="yes"/>
      <point x="243" y="1995"/>
      <point x="174" y="1908"/>
      <point x="172" y="1799" type="curve" smooth="yes"/>
      <point x="170" y="1716"/>
      <point x="242" y="1632"/>
    </contour>
    <contour>
      <point x="794" y="1632" type="curve" smooth="yes"/>
      <point x="923" y="1632"/>
      <point x="983" y="1723"/>
      <point x="985" y="1834" type="curve" smooth="yes"/>
      <point x="987" y="1914"/>
      <point x="923" y="1995"/>
      <point x="827" y="1995" type="curve" smooth="yes"/>
      <point x="714" y="1995"/>
      <point x="648" y="1908"/>
      <point x="646" y="1799" type="curve" smooth="yes"/>
      <point x="644" y="1716"/>
      <point x="713" y="1632"/>
    </contour>
    <contour>
      <point x="550" y="1700" type="move" name="_top"/>
    </contour>
  </outline>
</glyph>
<glyph name="dotaccent.cap" format="1">
  <advance width="393"/>
  <outline>
    <contour>
      <point x="170" y="1612" type="curve" smooth="yes"/>
      <point x="313" y="1612"/>
      <point x="385" y="1703"/>
      <point x="388" y="1814" type="curve" smooth="yes"/>
      <point x="390" y="1901"/>
      <point x="323" y="1975"/>
      <point x="206" y="1975" type="curve" smooth="yes"/>
      <point x="82" y="1975"/>
      <point x="-2" y="1888"/>
      <point x="-4" y="1779" type="curve" smooth="yes"/>
      <point x="-6" y="1686"/>
      <point x="70" y="1612"/>
    </contour>
    <contour>
      <point x="157" y="1700" type="move" name="_top"/>
    </contour>
  </outline>
</glyph>
<glyph name="f_f_i_trk" format="1">
  <advance width="2194"/>
  <outline>
    <contour>
      <point x="875" y="0" type="line"/>
      <point x="1223" y="0" type="line"/>
      <point x="1223" y="3"/>
      <point x="1216" y="-54"/>
      <point x="1350" y="924" type="curve"/>
      <point x="1537" y="924" type="line"/>
      <point x="1564" y="1140" type="line"/>
      <point x="1375" y="1140" type="line"/>
      <point x="1403" y="1299" type="line" smooth="yes"/>
      <point x="1427" y="1433"/>
      <point x="1477" y="1453"/>
      <point x="1533" y="1454" type="curve" smooth="yes"/>
      <point x="1590" y="1455"/>
      <point x="1638" y="1417"/>
      <point x="1649" y="1406" type="curve"/>
      <point x="1711" y="1644" type="line"/>
      <point x="1657" y="1666"/>
      <point x="1597" y="1670"/>
      <point x="1541" y="1670" type="curve" smooth="yes"/>
      <point x="1271" y="1670"/>
      <point x="1087" y="1493"/>
      <point x="1051" y="1245" type="curve" smooth="yes"/>
      <point x="1032" y="1140" type="line"/>
      <point x="921" y="1140" type="line"/>
      <point x="880" y="924" type="line"/>
      <point x="1002" y="924" type="line"/>
    </contour>
    <component base="idotless" xOffset="1530"/>
    <component base="dotaccent" xOffset="1808"/>
    <component base="f"/>
  </outline>
</glyph>
<glyph name="grave.cap" format="1">
  <advance width="527"/>
  <outline>
    <contour>
      <point x="347" y="1550" type="curve"/>
      <point x="490" y="1672" type="line"/>
      <point x="211" y="2014" type="line"/>
      <point x="1" y="1827" type="line"/>
      <point x="54" y="1726"/>
      <point x="250" y="1586"/>
    </contour>
    <contour>
      <point x="352" y="1700" type="move" name="_top"/>
    </contour>
  </outline>
</glyph>
<glyph name="hungarumlaut.cap" format="1">
  <advance width="931"/>
  <outline>
    <contour>
      <point x="73" y="1559" type="line"/>
      <point x="188" y="1596"/>
      <point x="365" y="1755"/>
      <point x="417" y="1871" type="curve"/>
      <point x="234" y="2014" type="line"/>
      <point x="-50" y="1645" type="line"/>
    </contour>
    <contour>
      <point x="562" y="1559" type="line"/>
      <point x="687" y="1597"/>
      <point x="840" y="1754"/>
      <point x="909" y="1870" type="curve"/>
      <point x="729" y="2014" type="line"/>
      <point x="444" y="1645" type="line"/>
    </contour>
    <contour>
      <point x="328" y="1700" type="move" name="_top"/>
    </contour>
  </outline>
</glyph>
<glyph name="three.numr" format="1">
  <advance width="1071"/>
  <outline>
    <contour>
      <point x="111" y="565" type="line"/>
      <point x="188" y="516"/>
      <point x="351" y="484"/>
      <point x="484" y="484" type="curve" smooth="yes"/>
      <point x="768" y="484"/>
      <point x="1000" y="631"/>
      <point x="1000" y="870" type="curve" smooth="yes"/>
      <point x="1000" y="971"/>
      <point x="956" y="1088"/>
      <point x="786" y="1117" type="curve"/>
      <point x="914" y="1167"/>
      <point x="973" y="1270"/>
      <point x="973" y="1408" type="curve" smooth="yes"/>
      <point x="973" y="1499"/>
      <point x="917" y="1644"/>
      <point x="638" y="1644" type="curve" smooth="yes"/>
      <point x="494" y="1644"/>
      <point x="341" y="1605"/>
      <point x="227" y="1526" type="curve"/>
      <point x="302" y="1346" type="line"/>
      <point x="343" y="1376"/>
      <point x="414" y="1413"/>
      <point x="529" y="1413" type="curve" smooth="yes"/>
      <point x="624" y="1413"/>
      <point x="652" y="1349"/>
      <point x="652" y="1316" type="curve" smooth="yes"/>
      <point x="652" y="1243"/>
      <point x="589" y="1191"/>
      <point x="375" y="1138" type="curve"/>
      <point x="340" y="929" type="line"/>
      <point x="578" y="988" type="line"/>
      <point x="641" y="984"/>
      <point x="687" y="951"/>
      <point x="687" y="882" type="curve" smooth="yes"/>
      <point x="687" y="753"/>
      <point x="553" y="698"/>
      <point x="419" y="696" type="curve" smooth="yes"/>
      <point x="313" y="694"/>
      <point x="209" y="721"/>
      <point x="155" y="756" type="curve"/>
    </contour>
  </outline>
</glyph>
<glyph name="tilde.cap" format="1">
  <advance width="821"/>
  <outline>
    <contour>
      <point x="99" y="1647" type="line"/>
      <point x="141" y="1691"/>
      <point x="195" y="1737"/>
      <point x="263" y="1736" type="curve" smooth="yes"/>
      <point x="396" y="1733"/>
      <point x="401" y="1592"/>
      <point x="597" y="1592" type="curve" smooth="yes"/>
      <point x="714" y="1592"/>
      <point x="858" y="1706"/>
      <point x="897" y="1801" type="curve"/>
      <point x="778" y="1946" type="line"/>
      <point x="736" y="1894"/>
      <point x="691" y="1836"/>
      <point x="608" y="1836" type="curve" smooth="yes"/>
      <point x="498" y="1836"/>
      <point x="471" y="1980"/>
      <point x="299" y="1980" type="curve" smooth="yes"/>
      <point x="188" y="1980"/>
      <point x="38" y="1874"/>
      <point x="-7" y="1783" type="curve"/>
    </contour>
    <contour>
      <point x="365" y="1700" type="move" name="_top"/>
    </contour>
  </outline>
</glyph>
